<?xml version="1.0" encoding="utf-8" standalone="no"?>
<!DOCTYPE svg PUBLIC "-//W3C//DTD SVG 1.1//EN"
  "http://www.w3.org/Graphics/SVG/1.1/DTD/svg11.dtd">
<svg xmlns:xlink="http://www.w3.org/1999/xlink" width="921.6pt" height="576pt" viewBox="0 0 921.6 576" xmlns="http://www.w3.org/2000/svg" version="1.1">
 <metadata>
  <rdf:RDF xmlns:dc="http://purl.org/dc/elements/1.1/" xmlns:cc="http://creativecommons.org/ns#" xmlns:rdf="http://www.w3.org/1999/02/22-rdf-syntax-ns#">
   <cc:Work>
    <dc:type rdf:resource="http://purl.org/dc/dcmitype/StillImage"/>
    <dc:date>2025-04-03T13:54:35.816785</dc:date>
    <dc:format>image/svg+xml</dc:format>
    <dc:creator>
     <cc:Agent>
      <dc:title>Matplotlib v3.7.2, https://matplotlib.org/</dc:title>
     </cc:Agent>
    </dc:creator>
   </cc:Work>
  </rdf:RDF>
 </metadata>
 <defs>
  <style type="text/css">*{stroke-linejoin: round; stroke-linecap: butt}</style>
 </defs>
 <g id="figure_1">
  <g id="patch_1">
   <path d="M 0 576 
L 921.6 576 
L 921.6 0 
L 0 0 
L 0 576 
z
" style="fill: none"/>
  </g>
  <g id="axes_1">
   <g id="patch_2">
    <path d="M 54.0132 522.3688 
L 909.6768 522.3688 
L 909.6768 26.5632 
L 54.0132 26.5632 
L 54.0132 522.3688 
z
" style="fill: none"/>
   </g>
   <g id="matplotlib.axis_1">
    <g id="xtick_1">
     <g id="text_1">
      <!-- Test on -->
      <g style="fill: #262626" transform="translate(97.257579 538.358419) scale(0.1012 -0.1012)">
       <defs>
        <path id="DejaVuSans-54" d="M -19 4666 
L 3928 4666 
L 3928 4134 
L 2272 4134 
L 2272 0 
L 1638 0 
L 1638 4134 
L -19 4134 
L -19 4666 
z
" transform="scale(0.015625)"/>
        <path id="DejaVuSans-65" d="M 3597 1894 
L 3597 1613 
L 953 1613 
Q 991 1019 1311 708 
Q 1631 397 2203 397 
Q 2534 397 2845 478 
Q 3156 559 3463 722 
L 3463 178 
Q 3153 47 2828 -22 
Q 2503 -91 2169 -91 
Q 1331 -91 842 396 
Q 353 884 353 1716 
Q 353 2575 817 3079 
Q 1281 3584 2069 3584 
Q 2775 3584 3186 3129 
Q 3597 2675 3597 1894 
z
M 3022 2063 
Q 3016 2534 2758 2815 
Q 2500 3097 2075 3097 
Q 1594 3097 1305 2825 
Q 1016 2553 972 2059 
L 3022 2063 
z
" transform="scale(0.015625)"/>
        <path id="DejaVuSans-73" d="M 2834 3397 
L 2834 2853 
Q 2591 2978 2328 3040 
Q 2066 3103 1784 3103 
Q 1356 3103 1142 2972 
Q 928 2841 928 2578 
Q 928 2378 1081 2264 
Q 1234 2150 1697 2047 
L 1894 2003 
Q 2506 1872 2764 1633 
Q 3022 1394 3022 966 
Q 3022 478 2636 193 
Q 2250 -91 1575 -91 
Q 1294 -91 989 -36 
Q 684 19 347 128 
L 347 722 
Q 666 556 975 473 
Q 1284 391 1588 391 
Q 1994 391 2212 530 
Q 2431 669 2431 922 
Q 2431 1156 2273 1281 
Q 2116 1406 1581 1522 
L 1381 1569 
Q 847 1681 609 1914 
Q 372 2147 372 2553 
Q 372 3047 722 3315 
Q 1072 3584 1716 3584 
Q 2034 3584 2315 3537 
Q 2597 3491 2834 3397 
z
" transform="scale(0.015625)"/>
        <path id="DejaVuSans-74" d="M 1172 4494 
L 1172 3500 
L 2356 3500 
L 2356 3053 
L 1172 3053 
L 1172 1153 
Q 1172 725 1289 603 
Q 1406 481 1766 481 
L 2356 481 
L 2356 0 
L 1766 0 
Q 1100 0 847 248 
Q 594 497 594 1153 
L 594 3053 
L 172 3053 
L 172 3500 
L 594 3500 
L 594 4494 
L 1172 4494 
z
" transform="scale(0.015625)"/>
        <path id="DejaVuSans-20" transform="scale(0.015625)"/>
        <path id="DejaVuSans-6f" d="M 1959 3097 
Q 1497 3097 1228 2736 
Q 959 2375 959 1747 
Q 959 1119 1226 758 
Q 1494 397 1959 397 
Q 2419 397 2687 759 
Q 2956 1122 2956 1747 
Q 2956 2369 2687 2733 
Q 2419 3097 1959 3097 
z
M 1959 3584 
Q 2709 3584 3137 3096 
Q 3566 2609 3566 1747 
Q 3566 888 3137 398 
Q 2709 -91 1959 -91 
Q 1206 -91 779 398 
Q 353 888 353 1747 
Q 353 2609 779 3096 
Q 1206 3584 1959 3584 
z
" transform="scale(0.015625)"/>
        <path id="DejaVuSans-6e" d="M 3513 2113 
L 3513 0 
L 2938 0 
L 2938 2094 
Q 2938 2591 2744 2837 
Q 2550 3084 2163 3084 
Q 1697 3084 1428 2787 
Q 1159 2491 1159 1978 
L 1159 0 
L 581 0 
L 581 3500 
L 1159 3500 
L 1159 2956 
Q 1366 3272 1645 3428 
Q 1925 3584 2291 3584 
Q 2894 3584 3203 3211 
Q 3513 2838 3513 2113 
z
" transform="scale(0.015625)"/>
       </defs>
       <use xlink:href="#DejaVuSans-54"/>
       <use xlink:href="#DejaVuSans-65" x="44.083984"/>
       <use xlink:href="#DejaVuSans-73" x="105.607422"/>
       <use xlink:href="#DejaVuSans-74" x="157.707031"/>
       <use xlink:href="#DejaVuSans-20" x="196.916016"/>
       <use xlink:href="#DejaVuSans-6f" x="228.703125"/>
       <use xlink:href="#DejaVuSans-6e" x="289.884766"/>
      </g>
      <!-- training -->
      <g style="fill: #262626" transform="translate(95.530063 549.690605) scale(0.1012 -0.1012)">
       <defs>
        <path id="DejaVuSans-72" d="M 2631 2963 
Q 2534 3019 2420 3045 
Q 2306 3072 2169 3072 
Q 1681 3072 1420 2755 
Q 1159 2438 1159 1844 
L 1159 0 
L 581 0 
L 581 3500 
L 1159 3500 
L 1159 2956 
Q 1341 3275 1631 3429 
Q 1922 3584 2338 3584 
Q 2397 3584 2469 3576 
Q 2541 3569 2628 3553 
L 2631 2963 
z
" transform="scale(0.015625)"/>
        <path id="DejaVuSans-61" d="M 2194 1759 
Q 1497 1759 1228 1600 
Q 959 1441 959 1056 
Q 959 750 1161 570 
Q 1363 391 1709 391 
Q 2188 391 2477 730 
Q 2766 1069 2766 1631 
L 2766 1759 
L 2194 1759 
z
M 3341 1997 
L 3341 0 
L 2766 0 
L 2766 531 
Q 2569 213 2275 61 
Q 1981 -91 1556 -91 
Q 1019 -91 701 211 
Q 384 513 384 1019 
Q 384 1609 779 1909 
Q 1175 2209 1959 2209 
L 2766 2209 
L 2766 2266 
Q 2766 2663 2505 2880 
Q 2244 3097 1772 3097 
Q 1472 3097 1187 3025 
Q 903 2953 641 2809 
L 641 3341 
Q 956 3463 1253 3523 
Q 1550 3584 1831 3584 
Q 2591 3584 2966 3190 
Q 3341 2797 3341 1997 
z
" transform="scale(0.015625)"/>
        <path id="DejaVuSans-69" d="M 603 3500 
L 1178 3500 
L 1178 0 
L 603 0 
L 603 3500 
z
M 603 4863 
L 1178 4863 
L 1178 4134 
L 603 4134 
L 603 4863 
z
" transform="scale(0.015625)"/>
        <path id="DejaVuSans-67" d="M 2906 1791 
Q 2906 2416 2648 2759 
Q 2391 3103 1925 3103 
Q 1463 3103 1205 2759 
Q 947 2416 947 1791 
Q 947 1169 1205 825 
Q 1463 481 1925 481 
Q 2391 481 2648 825 
Q 2906 1169 2906 1791 
z
M 3481 434 
Q 3481 -459 3084 -895 
Q 2688 -1331 1869 -1331 
Q 1566 -1331 1297 -1286 
Q 1028 -1241 775 -1147 
L 775 -588 
Q 1028 -725 1275 -790 
Q 1522 -856 1778 -856 
Q 2344 -856 2625 -561 
Q 2906 -266 2906 331 
L 2906 616 
Q 2728 306 2450 153 
Q 2172 0 1784 0 
Q 1141 0 747 490 
Q 353 981 353 1791 
Q 353 2603 747 3093 
Q 1141 3584 1784 3584 
Q 2172 3584 2450 3431 
Q 2728 3278 2906 2969 
L 2906 3500 
L 3481 3500 
L 3481 434 
z
" transform="scale(0.015625)"/>
       </defs>
       <use xlink:href="#DejaVuSans-74"/>
       <use xlink:href="#DejaVuSans-72" x="39.208984"/>
       <use xlink:href="#DejaVuSans-61" x="80.322266"/>
       <use xlink:href="#DejaVuSans-69" x="141.601562"/>
       <use xlink:href="#DejaVuSans-6e" x="169.384766"/>
       <use xlink:href="#DejaVuSans-69" x="232.763672"/>
       <use xlink:href="#DejaVuSans-6e" x="260.546875"/>
       <use xlink:href="#DejaVuSans-67" x="323.925781"/>
      </g>
      <!-- distribution -->
      <g style="fill: #262626" transform="translate(86.297144 561.022791) scale(0.1012 -0.1012)">
       <defs>
        <path id="DejaVuSans-64" d="M 2906 2969 
L 2906 4863 
L 3481 4863 
L 3481 0 
L 2906 0 
L 2906 525 
Q 2725 213 2448 61 
Q 2172 -91 1784 -91 
Q 1150 -91 751 415 
Q 353 922 353 1747 
Q 353 2572 751 3078 
Q 1150 3584 1784 3584 
Q 2172 3584 2448 3432 
Q 2725 3281 2906 2969 
z
M 947 1747 
Q 947 1113 1208 752 
Q 1469 391 1925 391 
Q 2381 391 2643 752 
Q 2906 1113 2906 1747 
Q 2906 2381 2643 2742 
Q 2381 3103 1925 3103 
Q 1469 3103 1208 2742 
Q 947 2381 947 1747 
z
" transform="scale(0.015625)"/>
        <path id="DejaVuSans-62" d="M 3116 1747 
Q 3116 2381 2855 2742 
Q 2594 3103 2138 3103 
Q 1681 3103 1420 2742 
Q 1159 2381 1159 1747 
Q 1159 1113 1420 752 
Q 1681 391 2138 391 
Q 2594 391 2855 752 
Q 3116 1113 3116 1747 
z
M 1159 2969 
Q 1341 3281 1617 3432 
Q 1894 3584 2278 3584 
Q 2916 3584 3314 3078 
Q 3713 2572 3713 1747 
Q 3713 922 3314 415 
Q 2916 -91 2278 -91 
Q 1894 -91 1617 61 
Q 1341 213 1159 525 
L 1159 0 
L 581 0 
L 581 4863 
L 1159 4863 
L 1159 2969 
z
" transform="scale(0.015625)"/>
        <path id="DejaVuSans-75" d="M 544 1381 
L 544 3500 
L 1119 3500 
L 1119 1403 
Q 1119 906 1312 657 
Q 1506 409 1894 409 
Q 2359 409 2629 706 
Q 2900 1003 2900 1516 
L 2900 3500 
L 3475 3500 
L 3475 0 
L 2900 0 
L 2900 538 
Q 2691 219 2414 64 
Q 2138 -91 1772 -91 
Q 1169 -91 856 284 
Q 544 659 544 1381 
z
M 1991 3584 
L 1991 3584 
z
" transform="scale(0.015625)"/>
       </defs>
       <use xlink:href="#DejaVuSans-64"/>
       <use xlink:href="#DejaVuSans-69" x="63.476562"/>
       <use xlink:href="#DejaVuSans-73" x="91.259766"/>
       <use xlink:href="#DejaVuSans-74" x="143.359375"/>
       <use xlink:href="#DejaVuSans-72" x="182.568359"/>
       <use xlink:href="#DejaVuSans-69" x="223.681641"/>
       <use xlink:href="#DejaVuSans-62" x="251.464844"/>
       <use xlink:href="#DejaVuSans-75" x="314.941406"/>
       <use xlink:href="#DejaVuSans-74" x="378.320312"/>
       <use xlink:href="#DejaVuSans-69" x="417.529297"/>
       <use xlink:href="#DejaVuSans-6f" x="445.3125"/>
       <use xlink:href="#DejaVuSans-6e" x="506.494141"/>
      </g>
     </g>
    </g>
    <g id="xtick_2">
     <g id="text_2">
      <!-- Length -->
      <g style="fill: #262626" transform="translate(219.915848 538.358419) scale(0.1012 -0.1012)">
       <defs>
        <path id="DejaVuSans-4c" d="M 628 4666 
L 1259 4666 
L 1259 531 
L 3531 531 
L 3531 0 
L 628 0 
L 628 4666 
z
" transform="scale(0.015625)"/>
        <path id="DejaVuSans-68" d="M 3513 2113 
L 3513 0 
L 2938 0 
L 2938 2094 
Q 2938 2591 2744 2837 
Q 2550 3084 2163 3084 
Q 1697 3084 1428 2787 
Q 1159 2491 1159 1978 
L 1159 0 
L 581 0 
L 581 4863 
L 1159 4863 
L 1159 2956 
Q 1366 3272 1645 3428 
Q 1925 3584 2291 3584 
Q 2894 3584 3203 3211 
Q 3513 2838 3513 2113 
z
" transform="scale(0.015625)"/>
       </defs>
       <use xlink:href="#DejaVuSans-4c"/>
       <use xlink:href="#DejaVuSans-65" x="53.962891"/>
       <use xlink:href="#DejaVuSans-6e" x="115.486328"/>
       <use xlink:href="#DejaVuSans-67" x="178.865234"/>
       <use xlink:href="#DejaVuSans-74" x="242.341797"/>
       <use xlink:href="#DejaVuSans-68" x="281.550781"/>
      </g>
      <!-- generalization -->
      <g style="fill: #262626" transform="translate(201.282398 549.690605) scale(0.1012 -0.1012)">
       <defs>
        <path id="DejaVuSans-6c" d="M 603 4863 
L 1178 4863 
L 1178 0 
L 603 0 
L 603 4863 
z
" transform="scale(0.015625)"/>
        <path id="DejaVuSans-7a" d="M 353 3500 
L 3084 3500 
L 3084 2975 
L 922 459 
L 3084 459 
L 3084 0 
L 275 0 
L 275 525 
L 2438 3041 
L 353 3041 
L 353 3500 
z
" transform="scale(0.015625)"/>
       </defs>
       <use xlink:href="#DejaVuSans-67"/>
       <use xlink:href="#DejaVuSans-65" x="63.476562"/>
       <use xlink:href="#DejaVuSans-6e" x="125"/>
       <use xlink:href="#DejaVuSans-65" x="188.378906"/>
       <use xlink:href="#DejaVuSans-72" x="249.902344"/>
       <use xlink:href="#DejaVuSans-61" x="291.015625"/>
       <use xlink:href="#DejaVuSans-6c" x="352.294922"/>
       <use xlink:href="#DejaVuSans-69" x="380.078125"/>
       <use xlink:href="#DejaVuSans-7a" x="407.861328"/>
       <use xlink:href="#DejaVuSans-61" x="460.351562"/>
       <use xlink:href="#DejaVuSans-74" x="521.630859"/>
       <use xlink:href="#DejaVuSans-69" x="560.839844"/>
       <use xlink:href="#DejaVuSans-6f" x="588.623047"/>
       <use xlink:href="#DejaVuSans-6e" x="649.804688"/>
      </g>
     </g>
    </g>
    <g id="xtick_3">
     <g id="text_3">
      <!-- Compose -->
      <g style="fill: #262626" transform="translate(335.991374 538.358419) scale(0.1012 -0.1012)">
       <defs>
        <path id="DejaVuSans-43" d="M 4122 4306 
L 4122 3641 
Q 3803 3938 3442 4084 
Q 3081 4231 2675 4231 
Q 1875 4231 1450 3742 
Q 1025 3253 1025 2328 
Q 1025 1406 1450 917 
Q 1875 428 2675 428 
Q 3081 428 3442 575 
Q 3803 722 4122 1019 
L 4122 359 
Q 3791 134 3420 21 
Q 3050 -91 2638 -91 
Q 1578 -91 968 557 
Q 359 1206 359 2328 
Q 359 3453 968 4101 
Q 1578 4750 2638 4750 
Q 3056 4750 3426 4639 
Q 3797 4528 4122 4306 
z
" transform="scale(0.015625)"/>
        <path id="DejaVuSans-6d" d="M 3328 2828 
Q 3544 3216 3844 3400 
Q 4144 3584 4550 3584 
Q 5097 3584 5394 3201 
Q 5691 2819 5691 2113 
L 5691 0 
L 5113 0 
L 5113 2094 
Q 5113 2597 4934 2840 
Q 4756 3084 4391 3084 
Q 3944 3084 3684 2787 
Q 3425 2491 3425 1978 
L 3425 0 
L 2847 0 
L 2847 2094 
Q 2847 2600 2669 2842 
Q 2491 3084 2119 3084 
Q 1678 3084 1418 2786 
Q 1159 2488 1159 1978 
L 1159 0 
L 581 0 
L 581 3500 
L 1159 3500 
L 1159 2956 
Q 1356 3278 1631 3431 
Q 1906 3584 2284 3584 
Q 2666 3584 2933 3390 
Q 3200 3197 3328 2828 
z
" transform="scale(0.015625)"/>
        <path id="DejaVuSans-70" d="M 1159 525 
L 1159 -1331 
L 581 -1331 
L 581 3500 
L 1159 3500 
L 1159 2969 
Q 1341 3281 1617 3432 
Q 1894 3584 2278 3584 
Q 2916 3584 3314 3078 
Q 3713 2572 3713 1747 
Q 3713 922 3314 415 
Q 2916 -91 2278 -91 
Q 1894 -91 1617 61 
Q 1341 213 1159 525 
z
M 3116 1747 
Q 3116 2381 2855 2742 
Q 2594 3103 2138 3103 
Q 1681 3103 1420 2742 
Q 1159 2381 1159 1747 
Q 1159 1113 1420 752 
Q 1681 391 2138 391 
Q 2594 391 2855 752 
Q 3116 1113 3116 1747 
z
" transform="scale(0.015625)"/>
       </defs>
       <use xlink:href="#DejaVuSans-43"/>
       <use xlink:href="#DejaVuSans-6f" x="69.824219"/>
       <use xlink:href="#DejaVuSans-6d" x="131.005859"/>
       <use xlink:href="#DejaVuSans-70" x="228.417969"/>
       <use xlink:href="#DejaVuSans-6f" x="291.894531"/>
       <use xlink:href="#DejaVuSans-73" x="353.076172"/>
       <use xlink:href="#DejaVuSans-65" x="405.175781"/>
      </g>
      <!-- different -->
      <g style="fill: #262626" transform="translate(338.043046 549.690605) scale(0.1012 -0.1012)">
       <defs>
        <path id="DejaVuSans-66" d="M 2375 4863 
L 2375 4384 
L 1825 4384 
Q 1516 4384 1395 4259 
Q 1275 4134 1275 3809 
L 1275 3500 
L 2222 3500 
L 2222 3053 
L 1275 3053 
L 1275 0 
L 697 0 
L 697 3053 
L 147 3053 
L 147 3500 
L 697 3500 
L 697 3744 
Q 697 4328 969 4595 
Q 1241 4863 1831 4863 
L 2375 4863 
z
" transform="scale(0.015625)"/>
       </defs>
       <use xlink:href="#DejaVuSans-64"/>
       <use xlink:href="#DejaVuSans-69" x="63.476562"/>
       <use xlink:href="#DejaVuSans-66" x="91.259766"/>
       <use xlink:href="#DejaVuSans-66" x="126.464844"/>
       <use xlink:href="#DejaVuSans-65" x="161.669922"/>
       <use xlink:href="#DejaVuSans-72" x="223.193359"/>
       <use xlink:href="#DejaVuSans-65" x="262.056641"/>
       <use xlink:href="#DejaVuSans-6e" x="323.580078"/>
       <use xlink:href="#DejaVuSans-74" x="386.958984"/>
      </g>
      <!-- concepts -->
      <g style="fill: #262626" transform="translate(336.794649 561.022791) scale(0.1012 -0.1012)">
       <defs>
        <path id="DejaVuSans-63" d="M 3122 3366 
L 3122 2828 
Q 2878 2963 2633 3030 
Q 2388 3097 2138 3097 
Q 1578 3097 1268 2742 
Q 959 2388 959 1747 
Q 959 1106 1268 751 
Q 1578 397 2138 397 
Q 2388 397 2633 464 
Q 2878 531 3122 666 
L 3122 134 
Q 2881 22 2623 -34 
Q 2366 -91 2075 -91 
Q 1284 -91 818 406 
Q 353 903 353 1747 
Q 353 2603 823 3093 
Q 1294 3584 2113 3584 
Q 2378 3584 2631 3529 
Q 2884 3475 3122 3366 
z
" transform="scale(0.015625)"/>
       </defs>
       <use xlink:href="#DejaVuSans-63"/>
       <use xlink:href="#DejaVuSans-6f" x="54.980469"/>
       <use xlink:href="#DejaVuSans-6e" x="116.162109"/>
       <use xlink:href="#DejaVuSans-63" x="179.541016"/>
       <use xlink:href="#DejaVuSans-65" x="234.521484"/>
       <use xlink:href="#DejaVuSans-70" x="296.044922"/>
       <use xlink:href="#DejaVuSans-74" x="359.521484"/>
       <use xlink:href="#DejaVuSans-73" x="398.730469"/>
      </g>
     </g>
    </g>
    <g id="xtick_4">
     <g id="text_4">
      <!-- Switch -->
      <g style="fill: #262626" transform="translate(465.116166 538.358419) scale(0.1012 -0.1012)">
       <defs>
        <path id="DejaVuSans-53" d="M 3425 4513 
L 3425 3897 
Q 3066 4069 2747 4153 
Q 2428 4238 2131 4238 
Q 1616 4238 1336 4038 
Q 1056 3838 1056 3469 
Q 1056 3159 1242 3001 
Q 1428 2844 1947 2747 
L 2328 2669 
Q 3034 2534 3370 2195 
Q 3706 1856 3706 1288 
Q 3706 609 3251 259 
Q 2797 -91 1919 -91 
Q 1588 -91 1214 -16 
Q 841 59 441 206 
L 441 856 
Q 825 641 1194 531 
Q 1563 422 1919 422 
Q 2459 422 2753 634 
Q 3047 847 3047 1241 
Q 3047 1584 2836 1778 
Q 2625 1972 2144 2069 
L 1759 2144 
Q 1053 2284 737 2584 
Q 422 2884 422 3419 
Q 422 4038 858 4394 
Q 1294 4750 2059 4750 
Q 2388 4750 2728 4690 
Q 3069 4631 3425 4513 
z
" transform="scale(0.015625)"/>
        <path id="DejaVuSans-77" d="M 269 3500 
L 844 3500 
L 1563 769 
L 2278 3500 
L 2956 3500 
L 3675 769 
L 4391 3500 
L 4966 3500 
L 4050 0 
L 3372 0 
L 2619 2869 
L 1863 0 
L 1184 0 
L 269 3500 
z
" transform="scale(0.015625)"/>
       </defs>
       <use xlink:href="#DejaVuSans-53"/>
       <use xlink:href="#DejaVuSans-77" x="63.476562"/>
       <use xlink:href="#DejaVuSans-69" x="145.263672"/>
       <use xlink:href="#DejaVuSans-74" x="173.046875"/>
       <use xlink:href="#DejaVuSans-63" x="212.255859"/>
       <use xlink:href="#DejaVuSans-68" x="267.236328"/>
      </g>
      <!-- concept -->
      <g style="fill: #262626" transform="translate(461.66825 549.690605) scale(0.1012 -0.1012)">
       <use xlink:href="#DejaVuSans-63"/>
       <use xlink:href="#DejaVuSans-6f" x="54.980469"/>
       <use xlink:href="#DejaVuSans-6e" x="116.162109"/>
       <use xlink:href="#DejaVuSans-63" x="179.541016"/>
       <use xlink:href="#DejaVuSans-65" x="234.521484"/>
       <use xlink:href="#DejaVuSans-70" x="296.044922"/>
       <use xlink:href="#DejaVuSans-74" x="359.521484"/>
      </g>
      <!-- order -->
      <g style="fill: #262626" transform="translate(468.351403 561.022791) scale(0.1012 -0.1012)">
       <use xlink:href="#DejaVuSans-6f"/>
       <use xlink:href="#DejaVuSans-72" x="61.181641"/>
       <use xlink:href="#DejaVuSans-64" x="100.544922"/>
       <use xlink:href="#DejaVuSans-65" x="164.021484"/>
       <use xlink:href="#DejaVuSans-72" x="225.544922"/>
      </g>
     </g>
    </g>
    <g id="xtick_5">
     <g id="text_5">
      <!-- Compose -->
      <g style="fill: #262626" transform="translate(580.466688 538.358419) scale(0.1012 -0.1012)">
       <use xlink:href="#DejaVuSans-43"/>
       <use xlink:href="#DejaVuSans-6f" x="69.824219"/>
       <use xlink:href="#DejaVuSans-6d" x="131.005859"/>
       <use xlink:href="#DejaVuSans-70" x="228.417969"/>
       <use xlink:href="#DejaVuSans-6f" x="291.894531"/>
       <use xlink:href="#DejaVuSans-73" x="353.076172"/>
       <use xlink:href="#DejaVuSans-65" x="405.175781"/>
      </g>
      <!-- new -->
      <g style="fill: #262626" transform="translate(593.62427 549.690605) scale(0.1012 -0.1012)">
       <use xlink:href="#DejaVuSans-6e"/>
       <use xlink:href="#DejaVuSans-65" x="63.378906"/>
       <use xlink:href="#DejaVuSans-77" x="124.902344"/>
      </g>
      <!-- operation -->
      <g style="fill: #262626" transform="translate(579.787542 561.022791) scale(0.1012 -0.1012)">
       <use xlink:href="#DejaVuSans-6f"/>
       <use xlink:href="#DejaVuSans-70" x="61.181641"/>
       <use xlink:href="#DejaVuSans-65" x="124.658203"/>
       <use xlink:href="#DejaVuSans-72" x="186.181641"/>
       <use xlink:href="#DejaVuSans-61" x="227.294922"/>
       <use xlink:href="#DejaVuSans-74" x="288.574219"/>
       <use xlink:href="#DejaVuSans-69" x="327.783203"/>
       <use xlink:href="#DejaVuSans-6f" x="355.566406"/>
       <use xlink:href="#DejaVuSans-6e" x="416.748047"/>
      </g>
     </g>
    </g>
    <g id="xtick_6">
     <g id="text_6">
      <!-- Add -->
      <g style="fill: #262626" transform="translate(716.522889 538.358419) scale(0.1012 -0.1012)">
       <defs>
        <path id="DejaVuSans-41" d="M 2188 4044 
L 1331 1722 
L 3047 1722 
L 2188 4044 
z
M 1831 4666 
L 2547 4666 
L 4325 0 
L 3669 0 
L 3244 1197 
L 1141 1197 
L 716 0 
L 50 0 
L 1831 4666 
z
" transform="scale(0.015625)"/>
       </defs>
       <use xlink:href="#DejaVuSans-41"/>
       <use xlink:href="#DejaVuSans-64" x="66.658203"/>
       <use xlink:href="#DejaVuSans-64" x="130.134766"/>
      </g>
      <!-- operation -->
      <g style="fill: #262626" transform="translate(702.025199 549.690605) scale(0.1012 -0.1012)">
       <use xlink:href="#DejaVuSans-6f"/>
       <use xlink:href="#DejaVuSans-70" x="61.181641"/>
       <use xlink:href="#DejaVuSans-65" x="124.658203"/>
       <use xlink:href="#DejaVuSans-72" x="186.181641"/>
       <use xlink:href="#DejaVuSans-61" x="227.294922"/>
       <use xlink:href="#DejaVuSans-74" x="288.574219"/>
       <use xlink:href="#DejaVuSans-69" x="327.783203"/>
       <use xlink:href="#DejaVuSans-6f" x="355.566406"/>
       <use xlink:href="#DejaVuSans-6e" x="416.748047"/>
      </g>
      <!-- functionality -->
      <g style="fill: #262626" transform="translate(694.760146 561.022791) scale(0.1012 -0.1012)">
       <defs>
        <path id="DejaVuSans-79" d="M 2059 -325 
Q 1816 -950 1584 -1140 
Q 1353 -1331 966 -1331 
L 506 -1331 
L 506 -850 
L 844 -850 
Q 1081 -850 1212 -737 
Q 1344 -625 1503 -206 
L 1606 56 
L 191 3500 
L 800 3500 
L 1894 763 
L 2988 3500 
L 3597 3500 
L 2059 -325 
z
" transform="scale(0.015625)"/>
       </defs>
       <use xlink:href="#DejaVuSans-66"/>
       <use xlink:href="#DejaVuSans-75" x="35.205078"/>
       <use xlink:href="#DejaVuSans-6e" x="98.583984"/>
       <use xlink:href="#DejaVuSans-63" x="161.962891"/>
       <use xlink:href="#DejaVuSans-74" x="216.943359"/>
       <use xlink:href="#DejaVuSans-69" x="256.152344"/>
       <use xlink:href="#DejaVuSans-6f" x="283.935547"/>
       <use xlink:href="#DejaVuSans-6e" x="345.117188"/>
       <use xlink:href="#DejaVuSans-61" x="408.496094"/>
       <use xlink:href="#DejaVuSans-6c" x="469.775391"/>
       <use xlink:href="#DejaVuSans-69" x="497.558594"/>
       <use xlink:href="#DejaVuSans-74" x="525.341797"/>
       <use xlink:href="#DejaVuSans-79" x="564.550781"/>
      </g>
     </g>
    </g>
    <g id="xtick_7">
     <g id="text_7">
      <!-- Generalization -->
      <g style="fill: #262626" transform="translate(811.762284 538.358419) scale(0.1012 -0.1012)">
       <defs>
        <path id="DejaVuSans-47" d="M 3809 666 
L 3809 1919 
L 2778 1919 
L 2778 2438 
L 4434 2438 
L 4434 434 
Q 4069 175 3628 42 
Q 3188 -91 2688 -91 
Q 1594 -91 976 548 
Q 359 1188 359 2328 
Q 359 3472 976 4111 
Q 1594 4750 2688 4750 
Q 3144 4750 3555 4637 
Q 3966 4525 4313 4306 
L 4313 3634 
Q 3963 3931 3569 4081 
Q 3175 4231 2741 4231 
Q 1884 4231 1454 3753 
Q 1025 3275 1025 2328 
Q 1025 1384 1454 906 
Q 1884 428 2741 428 
Q 3075 428 3337 486 
Q 3600 544 3809 666 
z
" transform="scale(0.015625)"/>
       </defs>
       <use xlink:href="#DejaVuSans-47"/>
       <use xlink:href="#DejaVuSans-65" x="77.490234"/>
       <use xlink:href="#DejaVuSans-6e" x="139.013672"/>
       <use xlink:href="#DejaVuSans-65" x="202.392578"/>
       <use xlink:href="#DejaVuSans-72" x="263.916016"/>
       <use xlink:href="#DejaVuSans-61" x="305.029297"/>
       <use xlink:href="#DejaVuSans-6c" x="366.308594"/>
       <use xlink:href="#DejaVuSans-69" x="394.091797"/>
       <use xlink:href="#DejaVuSans-7a" x="421.875"/>
       <use xlink:href="#DejaVuSans-61" x="474.365234"/>
       <use xlink:href="#DejaVuSans-74" x="535.644531"/>
       <use xlink:href="#DejaVuSans-69" x="574.853516"/>
       <use xlink:href="#DejaVuSans-6f" x="602.636719"/>
       <use xlink:href="#DejaVuSans-6e" x="663.818359"/>
      </g>
      <!-- average -->
      <g style="fill: #262626" transform="translate(827.842015 549.690605) scale(0.1012 -0.1012)">
       <defs>
        <path id="DejaVuSans-76" d="M 191 3500 
L 800 3500 
L 1894 563 
L 2988 3500 
L 3597 3500 
L 2284 0 
L 1503 0 
L 191 3500 
z
" transform="scale(0.015625)"/>
       </defs>
       <use xlink:href="#DejaVuSans-61"/>
       <use xlink:href="#DejaVuSans-76" x="61.279297"/>
       <use xlink:href="#DejaVuSans-65" x="120.458984"/>
       <use xlink:href="#DejaVuSans-72" x="181.982422"/>
       <use xlink:href="#DejaVuSans-61" x="223.095703"/>
       <use xlink:href="#DejaVuSans-67" x="284.375"/>
       <use xlink:href="#DejaVuSans-65" x="347.851562"/>
      </g>
     </g>
    </g>
   </g>
   <g id="matplotlib.axis_2">
    <g id="ytick_1">
     <g id="line2d_1">
      <path d="M 54.0132 522.3688 
L 909.6768 522.3688 
" clip-path="url(#pf63ab544ab)" style="fill: none; stroke: #cccccc; stroke-width: 0.8; stroke-linecap: round"/>
     </g>
     <g id="text_8">
      <!-- 0 -->
      <g style="fill: #262626" transform="translate(39.27435 526.213609) scale(0.1012 -0.1012)">
       <defs>
        <path id="DejaVuSans-30" d="M 2034 4250 
Q 1547 4250 1301 3770 
Q 1056 3291 1056 2328 
Q 1056 1369 1301 889 
Q 1547 409 2034 409 
Q 2525 409 2770 889 
Q 3016 1369 3016 2328 
Q 3016 3291 2770 3770 
Q 2525 4250 2034 4250 
z
M 2034 4750 
Q 2819 4750 3233 4129 
Q 3647 3509 3647 2328 
Q 3647 1150 3233 529 
Q 2819 -91 2034 -91 
Q 1250 -91 836 529 
Q 422 1150 422 2328 
Q 422 3509 836 4129 
Q 1250 4750 2034 4750 
z
" transform="scale(0.015625)"/>
       </defs>
       <use xlink:href="#DejaVuSans-30"/>
      </g>
     </g>
    </g>
    <g id="ytick_2">
     <g id="line2d_2">
      <path d="M 54.0132 423.20768 
L 909.6768 423.20768 
" clip-path="url(#pf63ab544ab)" style="fill: none; stroke: #cccccc; stroke-width: 0.8; stroke-linecap: round"/>
     </g>
     <g id="text_9">
      <!-- 20 -->
      <g style="fill: #262626" transform="translate(32.8355 427.052489) scale(0.1012 -0.1012)">
       <defs>
        <path id="DejaVuSans-32" d="M 1228 531 
L 3431 531 
L 3431 0 
L 469 0 
L 469 531 
Q 828 903 1448 1529 
Q 2069 2156 2228 2338 
Q 2531 2678 2651 2914 
Q 2772 3150 2772 3378 
Q 2772 3750 2511 3984 
Q 2250 4219 1831 4219 
Q 1534 4219 1204 4116 
Q 875 4013 500 3803 
L 500 4441 
Q 881 4594 1212 4672 
Q 1544 4750 1819 4750 
Q 2544 4750 2975 4387 
Q 3406 4025 3406 3419 
Q 3406 3131 3298 2873 
Q 3191 2616 2906 2266 
Q 2828 2175 2409 1742 
Q 1991 1309 1228 531 
z
" transform="scale(0.015625)"/>
       </defs>
       <use xlink:href="#DejaVuSans-32"/>
       <use xlink:href="#DejaVuSans-30" x="63.623047"/>
      </g>
     </g>
    </g>
    <g id="ytick_3">
     <g id="line2d_3">
      <path d="M 54.0132 324.04656 
L 909.6768 324.04656 
" clip-path="url(#pf63ab544ab)" style="fill: none; stroke: #cccccc; stroke-width: 0.8; stroke-linecap: round"/>
     </g>
     <g id="text_10">
      <!-- 40 -->
      <g style="fill: #262626" transform="translate(32.8355 327.891369) scale(0.1012 -0.1012)">
       <defs>
        <path id="DejaVuSans-34" d="M 2419 4116 
L 825 1625 
L 2419 1625 
L 2419 4116 
z
M 2253 4666 
L 3047 4666 
L 3047 1625 
L 3713 1625 
L 3713 1100 
L 3047 1100 
L 3047 0 
L 2419 0 
L 2419 1100 
L 313 1100 
L 313 1709 
L 2253 4666 
z
" transform="scale(0.015625)"/>
       </defs>
       <use xlink:href="#DejaVuSans-34"/>
       <use xlink:href="#DejaVuSans-30" x="63.623047"/>
      </g>
     </g>
    </g>
    <g id="ytick_4">
     <g id="line2d_4">
      <path d="M 54.0132 224.88544 
L 909.6768 224.88544 
" clip-path="url(#pf63ab544ab)" style="fill: none; stroke: #cccccc; stroke-width: 0.8; stroke-linecap: round"/>
     </g>
     <g id="text_11">
      <!-- 60 -->
      <g style="fill: #262626" transform="translate(32.8355 228.730249) scale(0.1012 -0.1012)">
       <defs>
        <path id="DejaVuSans-36" d="M 2113 2584 
Q 1688 2584 1439 2293 
Q 1191 2003 1191 1497 
Q 1191 994 1439 701 
Q 1688 409 2113 409 
Q 2538 409 2786 701 
Q 3034 994 3034 1497 
Q 3034 2003 2786 2293 
Q 2538 2584 2113 2584 
z
M 3366 4563 
L 3366 3988 
Q 3128 4100 2886 4159 
Q 2644 4219 2406 4219 
Q 1781 4219 1451 3797 
Q 1122 3375 1075 2522 
Q 1259 2794 1537 2939 
Q 1816 3084 2150 3084 
Q 2853 3084 3261 2657 
Q 3669 2231 3669 1497 
Q 3669 778 3244 343 
Q 2819 -91 2113 -91 
Q 1303 -91 875 529 
Q 447 1150 447 2328 
Q 447 3434 972 4092 
Q 1497 4750 2381 4750 
Q 2619 4750 2861 4703 
Q 3103 4656 3366 4563 
z
" transform="scale(0.015625)"/>
       </defs>
       <use xlink:href="#DejaVuSans-36"/>
       <use xlink:href="#DejaVuSans-30" x="63.623047"/>
      </g>
     </g>
    </g>
    <g id="ytick_5">
     <g id="line2d_5">
      <path d="M 54.0132 125.72432 
L 909.6768 125.72432 
" clip-path="url(#pf63ab544ab)" style="fill: none; stroke: #cccccc; stroke-width: 0.8; stroke-linecap: round"/>
     </g>
     <g id="text_12">
      <!-- 80 -->
      <g style="fill: #262626" transform="translate(32.8355 129.569129) scale(0.1012 -0.1012)">
       <defs>
        <path id="DejaVuSans-38" d="M 2034 2216 
Q 1584 2216 1326 1975 
Q 1069 1734 1069 1313 
Q 1069 891 1326 650 
Q 1584 409 2034 409 
Q 2484 409 2743 651 
Q 3003 894 3003 1313 
Q 3003 1734 2745 1975 
Q 2488 2216 2034 2216 
z
M 1403 2484 
Q 997 2584 770 2862 
Q 544 3141 544 3541 
Q 544 4100 942 4425 
Q 1341 4750 2034 4750 
Q 2731 4750 3128 4425 
Q 3525 4100 3525 3541 
Q 3525 3141 3298 2862 
Q 3072 2584 2669 2484 
Q 3125 2378 3379 2068 
Q 3634 1759 3634 1313 
Q 3634 634 3220 271 
Q 2806 -91 2034 -91 
Q 1263 -91 848 271 
Q 434 634 434 1313 
Q 434 1759 690 2068 
Q 947 2378 1403 2484 
z
M 1172 3481 
Q 1172 3119 1398 2916 
Q 1625 2713 2034 2713 
Q 2441 2713 2670 2916 
Q 2900 3119 2900 3481 
Q 2900 3844 2670 4047 
Q 2441 4250 2034 4250 
Q 1625 4250 1398 4047 
Q 1172 3844 1172 3481 
z
" transform="scale(0.015625)"/>
       </defs>
       <use xlink:href="#DejaVuSans-38"/>
       <use xlink:href="#DejaVuSans-30" x="63.623047"/>
      </g>
     </g>
    </g>
    <g id="ytick_6">
     <g id="line2d_6">
      <path d="M 54.0132 26.5632 
L 909.6768 26.5632 
" clip-path="url(#pf63ab544ab)" style="fill: none; stroke: #cccccc; stroke-width: 0.8; stroke-linecap: round"/>
     </g>
     <g id="text_13">
      <!-- 100 -->
      <g style="fill: #262626" transform="translate(26.39665 30.408009) scale(0.1012 -0.1012)">
       <defs>
        <path id="DejaVuSans-31" d="M 794 531 
L 1825 531 
L 1825 4091 
L 703 3866 
L 703 4441 
L 1819 4666 
L 2450 4666 
L 2450 531 
L 3481 531 
L 3481 0 
L 794 0 
L 794 531 
z
" transform="scale(0.015625)"/>
       </defs>
       <use xlink:href="#DejaVuSans-31"/>
       <use xlink:href="#DejaVuSans-30" x="63.623047"/>
       <use xlink:href="#DejaVuSans-30" x="127.246094"/>
      </g>
     </g>
    </g>
    <g id="text_14">
     <!-- End-to-end test accuracy [%] -->
     <g style="fill: #262626" transform="translate(20.100675 355.304675) rotate(-90) scale(0.1104 -0.1104)">
      <defs>
       <path id="DejaVuSans-45" d="M 628 4666 
L 3578 4666 
L 3578 4134 
L 1259 4134 
L 1259 2753 
L 3481 2753 
L 3481 2222 
L 1259 2222 
L 1259 531 
L 3634 531 
L 3634 0 
L 628 0 
L 628 4666 
z
" transform="scale(0.015625)"/>
       <path id="DejaVuSans-2d" d="M 313 2009 
L 1997 2009 
L 1997 1497 
L 313 1497 
L 313 2009 
z
" transform="scale(0.015625)"/>
       <path id="DejaVuSans-5b" d="M 550 4863 
L 1875 4863 
L 1875 4416 
L 1125 4416 
L 1125 -397 
L 1875 -397 
L 1875 -844 
L 550 -844 
L 550 4863 
z
" transform="scale(0.015625)"/>
       <path id="DejaVuSans-25" d="M 4653 2053 
Q 4381 2053 4226 1822 
Q 4072 1591 4072 1178 
Q 4072 772 4226 539 
Q 4381 306 4653 306 
Q 4919 306 5073 539 
Q 5228 772 5228 1178 
Q 5228 1588 5073 1820 
Q 4919 2053 4653 2053 
z
M 4653 2450 
Q 5147 2450 5437 2106 
Q 5728 1763 5728 1178 
Q 5728 594 5436 251 
Q 5144 -91 4653 -91 
Q 4153 -91 3862 251 
Q 3572 594 3572 1178 
Q 3572 1766 3864 2108 
Q 4156 2450 4653 2450 
z
M 1428 4353 
Q 1159 4353 1004 4120 
Q 850 3888 850 3481 
Q 850 3069 1003 2837 
Q 1156 2606 1428 2606 
Q 1700 2606 1854 2837 
Q 2009 3069 2009 3481 
Q 2009 3884 1853 4118 
Q 1697 4353 1428 4353 
z
M 4250 4750 
L 4750 4750 
L 1831 -91 
L 1331 -91 
L 4250 4750 
z
M 1428 4750 
Q 1922 4750 2215 4408 
Q 2509 4066 2509 3481 
Q 2509 2891 2217 2550 
Q 1925 2209 1428 2209 
Q 931 2209 642 2551 
Q 353 2894 353 3481 
Q 353 4063 643 4406 
Q 934 4750 1428 4750 
z
" transform="scale(0.015625)"/>
       <path id="DejaVuSans-5d" d="M 1947 4863 
L 1947 -844 
L 622 -844 
L 622 -397 
L 1369 -397 
L 1369 4416 
L 622 4416 
L 622 4863 
L 1947 4863 
z
" transform="scale(0.015625)"/>
      </defs>
      <use xlink:href="#DejaVuSans-45"/>
      <use xlink:href="#DejaVuSans-6e" x="63.183594"/>
      <use xlink:href="#DejaVuSans-64" x="126.5625"/>
      <use xlink:href="#DejaVuSans-2d" x="190.039062"/>
      <use xlink:href="#DejaVuSans-74" x="226.123047"/>
      <use xlink:href="#DejaVuSans-6f" x="265.332031"/>
      <use xlink:href="#DejaVuSans-2d" x="328.388672"/>
      <use xlink:href="#DejaVuSans-65" x="364.472656"/>
      <use xlink:href="#DejaVuSans-6e" x="425.996094"/>
      <use xlink:href="#DejaVuSans-64" x="489.375"/>
      <use xlink:href="#DejaVuSans-20" x="552.851562"/>
      <use xlink:href="#DejaVuSans-74" x="584.638672"/>
      <use xlink:href="#DejaVuSans-65" x="623.847656"/>
      <use xlink:href="#DejaVuSans-73" x="685.371094"/>
      <use xlink:href="#DejaVuSans-74" x="737.470703"/>
      <use xlink:href="#DejaVuSans-20" x="776.679688"/>
      <use xlink:href="#DejaVuSans-61" x="808.466797"/>
      <use xlink:href="#DejaVuSans-63" x="869.746094"/>
      <use xlink:href="#DejaVuSans-63" x="924.726562"/>
      <use xlink:href="#DejaVuSans-75" x="979.707031"/>
      <use xlink:href="#DejaVuSans-72" x="1043.085938"/>
      <use xlink:href="#DejaVuSans-61" x="1084.199219"/>
      <use xlink:href="#DejaVuSans-63" x="1145.478516"/>
      <use xlink:href="#DejaVuSans-79" x="1200.458984"/>
      <use xlink:href="#DejaVuSans-20" x="1259.638672"/>
      <use xlink:href="#DejaVuSans-5b" x="1291.425781"/>
      <use xlink:href="#DejaVuSans-25" x="1330.439453"/>
      <use xlink:href="#DejaVuSans-5d" x="1425.458984"/>
     </g>
    </g>
   </g>
   <g id="patch_3">
    <path d="M 66.236966 522.3688 
L 90.684497 522.3688 
L 90.684497 351.216707 
L 66.236966 351.216707 
z
" clip-path="url(#pf63ab544ab)" style="fill: #1b541f; stroke: #ffffff; stroke-width: 0.8; stroke-linejoin: miter"/>
   </g>
   <g id="patch_4">
    <path d="M 188.474623 522.3688 
L 212.922154 522.3688 
L 212.922154 519.889772 
L 188.474623 519.889772 
z
" clip-path="url(#pf63ab544ab)" style="fill: #1b541f; stroke: #ffffff; stroke-width: 0.8; stroke-linejoin: miter"/>
   </g>
   <g id="patch_5">
    <path d="M 310.71228 522.3688 
L 335.159811 522.3688 
L 335.159811 416.266402 
L 310.71228 416.266402 
z
" clip-path="url(#pf63ab544ab)" style="fill: #1b541f; stroke: #ffffff; stroke-width: 0.8; stroke-linejoin: miter"/>
   </g>
   <g id="patch_6">
    <path d="M 432.949937 522.3688 
L 457.397469 522.3688 
L 457.397469 421.521941 
L 432.949937 421.521941 
z
" clip-path="url(#pf63ab544ab)" style="fill: #1b541f; stroke: #ffffff; stroke-width: 0.8; stroke-linejoin: miter"/>
   </g>
   <g id="patch_7">
    <path d="M 555.187594 522.3688 
L 579.635126 522.3688 
L 579.635126 395.640889 
L 555.187594 395.640889 
z
" clip-path="url(#pf63ab544ab)" style="fill: #1b541f; stroke: #ffffff; stroke-width: 0.8; stroke-linejoin: miter"/>
   </g>
   <g id="patch_8">
    <path d="M 677.425251 522.3688 
L 701.872783 522.3688 
L 701.872783 451.964405 
L 677.425251 451.964405 
z
" clip-path="url(#pf63ab544ab)" style="fill: #1b541f; stroke: #ffffff; stroke-width: 0.8; stroke-linejoin: miter"/>
   </g>
   <g id="patch_9">
    <path d="M 799.662909 522.3688 
L 824.11044 522.3688 
L 824.11044 421.615883 
L 799.662909 421.615883 
z
" clip-path="url(#pf63ab544ab)" style="fill: #1b541f; stroke: #ffffff; stroke-width: 0.8; stroke-linejoin: miter"/>
   </g>
   <g id="patch_10">
    <path d="M 90.684497 522.3688 
L 115.132029 522.3688 
L 115.132029 225.381246 
L 90.684497 225.381246 
z
" clip-path="url(#pf63ab544ab)" style="fill: #6f786e; stroke: #ffffff; stroke-width: 0.8; stroke-linejoin: miter"/>
   </g>
   <g id="patch_11">
    <path d="M 212.922154 522.3688 
L 237.369686 522.3688 
L 237.369686 449.485377 
L 212.922154 449.485377 
z
" clip-path="url(#pf63ab544ab)" style="fill: #6f786e; stroke: #ffffff; stroke-width: 0.8; stroke-linejoin: miter"/>
   </g>
   <g id="patch_12">
    <path d="M 335.159811 522.3688 
L 359.607343 522.3688 
L 359.607343 336.565651 
L 335.159811 336.565651 
z
" clip-path="url(#pf63ab544ab)" style="fill: #6f786e; stroke: #ffffff; stroke-width: 0.8; stroke-linejoin: miter"/>
   </g>
   <g id="patch_13">
    <path d="M 457.397469 522.3688 
L 481.845 522.3688 
L 481.845 412.052054 
L 457.397469 412.052054 
z
" clip-path="url(#pf63ab544ab)" style="fill: #6f786e; stroke: #ffffff; stroke-width: 0.8; stroke-linejoin: miter"/>
   </g>
   <g id="patch_14">
    <path d="M 579.635126 522.3688 
L 604.082657 522.3688 
L 604.082657 417.753818 
L 579.635126 417.753818 
z
" clip-path="url(#pf63ab544ab)" style="fill: #6f786e; stroke: #ffffff; stroke-width: 0.8; stroke-linejoin: miter"/>
   </g>
   <g id="patch_15">
    <path d="M 701.872783 522.3688 
L 726.320314 522.3688 
L 726.320314 426.306465 
L 701.872783 426.306465 
z
" clip-path="url(#pf63ab544ab)" style="fill: #6f786e; stroke: #ffffff; stroke-width: 0.8; stroke-linejoin: miter"/>
   </g>
   <g id="patch_16">
    <path d="M 824.11044 522.3688 
L 848.557971 522.3688 
L 848.557971 398.169497 
L 824.11044 398.169497 
z
" clip-path="url(#pf63ab544ab)" style="fill: #6f786e; stroke: #ffffff; stroke-width: 0.8; stroke-linejoin: miter"/>
   </g>
   <g id="patch_17">
    <path d="M 115.132029 522.3688 
L 139.57956 522.3688 
L 139.57956 220.753727 
L 115.132029 220.753727 
z
" clip-path="url(#pf63ab544ab)" style="fill: #115a7b; stroke: #ffffff; stroke-width: 0.8; stroke-linejoin: miter"/>
   </g>
   <g id="patch_18">
    <path d="M 237.369686 522.3688 
L 261.817217 522.3688 
L 261.817217 434.809531 
L 237.369686 434.809531 
z
" clip-path="url(#pf63ab544ab)" style="fill: #115a7b; stroke: #ffffff; stroke-width: 0.8; stroke-linejoin: miter"/>
   </g>
   <g id="patch_19">
    <path d="M 359.607343 522.3688 
L 384.054874 522.3688 
L 384.054874 388.873142 
L 359.607343 388.873142 
z
" clip-path="url(#pf63ab544ab)" style="fill: #115a7b; stroke: #ffffff; stroke-width: 0.8; stroke-linejoin: miter"/>
   </g>
   <g id="patch_20">
    <path d="M 481.845 522.3688 
L 506.292531 522.3688 
L 506.292531 437.784365 
L 481.845 437.784365 
z
" clip-path="url(#pf63ab544ab)" style="fill: #115a7b; stroke: #ffffff; stroke-width: 0.8; stroke-linejoin: miter"/>
   </g>
   <g id="patch_21">
    <path d="M 604.082657 522.3688 
L 628.530189 522.3688 
L 628.530189 459.50065 
L 604.082657 459.50065 
z
" clip-path="url(#pf63ab544ab)" style="fill: #115a7b; stroke: #ffffff; stroke-width: 0.8; stroke-linejoin: miter"/>
   </g>
   <g id="patch_22">
    <path d="M 726.320314 522.3688 
L 750.767846 522.3688 
L 750.767846 435.305337 
L 726.320314 435.305337 
z
" clip-path="url(#pf63ab544ab)" style="fill: #115a7b; stroke: #ffffff; stroke-width: 0.8; stroke-linejoin: miter"/>
   </g>
   <g id="patch_23">
    <path d="M 848.557971 522.3688 
L 873.005503 522.3688 
L 873.005503 432.549701 
L 848.557971 432.549701 
z
" clip-path="url(#pf63ab544ab)" style="fill: #115a7b; stroke: #ffffff; stroke-width: 0.8; stroke-linejoin: miter"/>
   </g>
   <g id="patch_24">
    <path d="M 139.57956 522.3688 
L 164.027091 522.3688 
L 164.027091 423.20768 
L 139.57956 423.20768 
z
" clip-path="url(#pf63ab544ab)" style="fill: #1887aa; stroke: #ffffff; stroke-width: 0.8; stroke-linejoin: miter"/>
   </g>
   <g id="patch_25">
    <path d="M 261.817217 522.3688 
L 286.264749 522.3688 
L 286.264749 522.3688 
L 261.817217 522.3688 
z
" clip-path="url(#pf63ab544ab)" style="fill: #1887aa; stroke: #ffffff; stroke-width: 0.8; stroke-linejoin: miter"/>
   </g>
   <g id="patch_26">
    <path d="M 384.054874 522.3688 
L 408.502406 522.3688 
L 408.502406 519.889772 
L 384.054874 519.889772 
z
" clip-path="url(#pf63ab544ab)" style="fill: #1887aa; stroke: #ffffff; stroke-width: 0.8; stroke-linejoin: miter"/>
   </g>
   <g id="patch_27">
    <path d="M 506.292531 522.3688 
L 530.740063 522.3688 
L 530.740063 508.684565 
L 506.292531 508.684565 
z
" clip-path="url(#pf63ab544ab)" style="fill: #1887aa; stroke: #ffffff; stroke-width: 0.8; stroke-linejoin: miter"/>
   </g>
   <g id="patch_28">
    <path d="M 628.530189 522.3688 
L 652.97772 522.3688 
L 652.97772 520.881383 
L 628.530189 520.881383 
z
" clip-path="url(#pf63ab544ab)" style="fill: #1887aa; stroke: #ffffff; stroke-width: 0.8; stroke-linejoin: miter"/>
   </g>
   <g id="patch_29">
    <path d="M 750.767846 522.3688 
L 775.215377 522.3688 
L 775.215377 477.448813 
L 750.767846 477.448813 
z
" clip-path="url(#pf63ab544ab)" style="fill: #1887aa; stroke: #ffffff; stroke-width: 0.8; stroke-linejoin: miter"/>
   </g>
   <g id="patch_30">
    <path d="M 873.005503 522.3688 
L 897.453034 522.3688 
L 897.453034 506.726133 
L 873.005503 506.726133 
z
" clip-path="url(#pf63ab544ab)" style="fill: #1887aa; stroke: #ffffff; stroke-width: 0.8; stroke-linejoin: miter"/>
   </g>
   <g id="patch_31">
    <path d="M 115.132029 522.3688 
L 115.132029 522.3688 
L 115.132029 522.3688 
L 115.132029 522.3688 
z
" clip-path="url(#pf63ab544ab)" style="fill: #1b541f; stroke: #ffffff; stroke-width: 0.8; stroke-linejoin: miter"/>
   </g>
   <g id="patch_32">
    <path d="M 115.132029 522.3688 
L 115.132029 522.3688 
L 115.132029 522.3688 
L 115.132029 522.3688 
z
" clip-path="url(#pf63ab544ab)" style="fill: #6f786e; stroke: #ffffff; stroke-width: 0.8; stroke-linejoin: miter"/>
   </g>
   <g id="patch_33">
    <path d="M 115.132029 522.3688 
L 115.132029 522.3688 
L 115.132029 522.3688 
L 115.132029 522.3688 
z
" clip-path="url(#pf63ab544ab)" style="fill: #115a7b; stroke: #ffffff; stroke-width: 0.8; stroke-linejoin: miter"/>
   </g>
   <g id="patch_34">
    <path d="M 115.132029 522.3688 
L 115.132029 522.3688 
L 115.132029 522.3688 
L 115.132029 522.3688 
z
" clip-path="url(#pf63ab544ab)" style="fill: #1887aa; stroke: #ffffff; stroke-width: 0.8; stroke-linejoin: miter"/>
   </g>
   <g id="line2d_7">
    <path d="M 78.460731 374.51957 
L 78.460731 328.905455 
" clip-path="url(#pf63ab544ab)" style="fill: none; stroke: #424242; stroke-width: 1.8; stroke-linecap: round"/>
   </g>
   <g id="line2d_8">
    <path d="M 200.698389 521.47635 
L 200.698389 517.311583 
" clip-path="url(#pf63ab544ab)" style="fill: none; stroke: #424242; stroke-width: 1.8; stroke-linecap: round"/>
   </g>
   <g id="line2d_9">
    <path d="M 322.936046 422.34002 
L 322.936046 406.722144 
" clip-path="url(#pf63ab544ab)" style="fill: none; stroke: #424242; stroke-width: 1.8; stroke-linecap: round"/>
   </g>
   <g id="line2d_10">
    <path d="M 445.173703 430.347281 
L 445.173703 414.372424 
" clip-path="url(#pf63ab544ab)" style="fill: none; stroke: #424242; stroke-width: 1.8; stroke-linecap: round"/>
   </g>
   <g id="line2d_11">
    <path d="M 567.41136 416.068079 
L 567.41136 376.899437 
" clip-path="url(#pf63ab544ab)" style="fill: none; stroke: #424242; stroke-width: 1.8; stroke-linecap: round"/>
   </g>
   <g id="line2d_12">
    <path d="M 689.649017 460.095617 
L 689.649017 442.742421 
" clip-path="url(#pf63ab544ab)" style="fill: none; stroke: #424242; stroke-width: 1.8; stroke-linecap: round"/>
   </g>
   <g id="line2d_13">
    <path clip-path="url(#pf63ab544ab)" style="fill: none; stroke: #424242; stroke-width: 1.8; stroke-linecap: round"/>
   </g>
   <g id="line2d_14">
    <path d="M 102.908263 238.767997 
L 102.908263 215.960939 
" clip-path="url(#pf63ab544ab)" style="fill: none; stroke: #424242; stroke-width: 1.8; stroke-linecap: round"/>
   </g>
   <g id="line2d_15">
    <path d="M 225.14592 458.161975 
L 225.14592 433.743549 
" clip-path="url(#pf63ab544ab)" style="fill: none; stroke: #424242; stroke-width: 1.8; stroke-linecap: round"/>
   </g>
   <g id="line2d_16">
    <path d="M 347.383577 344.870395 
L 347.383577 326.649539 
" clip-path="url(#pf63ab544ab)" style="fill: none; stroke: #424242; stroke-width: 1.8; stroke-linecap: round"/>
   </g>
   <g id="line2d_17">
    <path d="M 469.621234 432.504035 
L 469.621234 396.062323 
" clip-path="url(#pf63ab544ab)" style="fill: none; stroke: #424242; stroke-width: 1.8; stroke-linecap: round"/>
   </g>
   <g id="line2d_18">
    <path d="M 591.858891 425.438805 
L 591.858891 410.068832 
" clip-path="url(#pf63ab544ab)" style="fill: none; stroke: #424242; stroke-width: 1.8; stroke-linecap: round"/>
   </g>
   <g id="line2d_19">
    <path d="M 714.096549 428.413639 
L 714.096549 424.199291 
" clip-path="url(#pf63ab544ab)" style="fill: none; stroke: #424242; stroke-width: 1.8; stroke-linecap: round"/>
   </g>
   <g id="line2d_20">
    <path clip-path="url(#pf63ab544ab)" style="fill: none; stroke: #424242; stroke-width: 1.8; stroke-linecap: round"/>
   </g>
   <g id="line2d_21">
    <path d="M 127.355794 236.784774 
L 127.355794 189.187437 
" clip-path="url(#pf63ab544ab)" style="fill: none; stroke: #424242; stroke-width: 1.8; stroke-linecap: round"/>
   </g>
   <g id="line2d_22">
    <path d="M 249.593451 442.841582 
L 249.593451 423.306841 
" clip-path="url(#pf63ab544ab)" style="fill: none; stroke: #424242; stroke-width: 1.8; stroke-linecap: round"/>
   </g>
   <g id="line2d_23">
    <path d="M 371.831109 404.862873 
L 371.831109 372.883412 
" clip-path="url(#pf63ab544ab)" style="fill: none; stroke: #424242; stroke-width: 1.8; stroke-linecap: round"/>
   </g>
   <g id="line2d_24">
    <path d="M 494.068766 458.905683 
L 494.068766 423.009358 
" clip-path="url(#pf63ab544ab)" style="fill: none; stroke: #424242; stroke-width: 1.8; stroke-linecap: round"/>
   </g>
   <g id="line2d_25">
    <path d="M 616.306423 474.972264 
L 616.306423 445.315652 
" clip-path="url(#pf63ab544ab)" style="fill: none; stroke: #424242; stroke-width: 1.8; stroke-linecap: round"/>
   </g>
   <g id="line2d_26">
    <path d="M 738.54408 453.650144 
L 738.54408 416.960529 
" clip-path="url(#pf63ab544ab)" style="fill: none; stroke: #424242; stroke-width: 1.8; stroke-linecap: round"/>
   </g>
   <g id="line2d_27">
    <path clip-path="url(#pf63ab544ab)" style="fill: none; stroke: #424242; stroke-width: 1.8; stroke-linecap: round"/>
   </g>
   <g id="line2d_28">
    <path d="M 151.803326 423.20768 
L 151.803326 423.20768 
" clip-path="url(#pf63ab544ab)" style="fill: none; stroke: #424242; stroke-width: 1.8; stroke-linecap: round"/>
   </g>
   <g id="line2d_29">
    <path d="M 274.040983 522.3688 
L 274.040983 522.3688 
" clip-path="url(#pf63ab544ab)" style="fill: none; stroke: #424242; stroke-width: 1.8; stroke-linecap: round"/>
   </g>
   <g id="line2d_30">
    <path d="M 396.27864 519.889772 
L 396.27864 519.889772 
" clip-path="url(#pf63ab544ab)" style="fill: none; stroke: #424242; stroke-width: 1.8; stroke-linecap: round"/>
   </g>
   <g id="line2d_31">
    <path d="M 518.516297 508.982049 
L 518.516297 508.287921 
" clip-path="url(#pf63ab544ab)" style="fill: none; stroke: #424242; stroke-width: 1.8; stroke-linecap: round"/>
   </g>
   <g id="line2d_32">
    <path d="M 640.753954 520.881383 
L 640.753954 520.881383 
" clip-path="url(#pf63ab544ab)" style="fill: none; stroke: #424242; stroke-width: 1.8; stroke-linecap: round"/>
   </g>
   <g id="line2d_33">
    <path d="M 762.991611 480.540161 
L 762.991611 473.879012 
" clip-path="url(#pf63ab544ab)" style="fill: none; stroke: #424242; stroke-width: 1.8; stroke-linecap: round"/>
   </g>
   <g id="line2d_34">
    <path clip-path="url(#pf63ab544ab)" style="fill: none; stroke: #424242; stroke-width: 1.8; stroke-linecap: round"/>
   </g>
   <g id="patch_35">
    <path d="M 54.0132 522.3688 
L 54.0132 26.5632 
" style="fill: none; stroke: #cccccc; stroke-linejoin: miter; stroke-linecap: square"/>
   </g>
   <g id="patch_36">
    <path d="M 909.6768 522.3688 
L 909.6768 26.5632 
" style="fill: none; stroke: #cccccc; stroke-linejoin: miter; stroke-linecap: square"/>
   </g>
   <g id="patch_37">
    <path d="M 54.0132 522.3688 
L 909.6768 522.3688 
" style="fill: none; stroke: #cccccc; stroke-linejoin: miter; stroke-linecap: square"/>
   </g>
   <g id="patch_38">
    <path d="M 54.0132 26.5632 
L 909.6768 26.5632 
" style="fill: none; stroke: #cccccc; stroke-linejoin: miter; stroke-linecap: square"/>
   </g>
   <g id="text_15">
    <!-- 19.4 -->
    <g transform="translate(700.477674 420.923727) scale(0.1104 -0.1104)">
     <defs>
      <path id="DejaVuSans-Bold-31" d="M 750 831 
L 1813 831 
L 1813 3847 
L 722 3622 
L 722 4441 
L 1806 4666 
L 2950 4666 
L 2950 831 
L 4013 831 
L 4013 0 
L 750 0 
L 750 831 
z
" transform="scale(0.015625)"/>
      <path id="DejaVuSans-Bold-39" d="M 641 103 
L 641 966 
Q 928 831 1190 764 
Q 1453 697 1709 697 
Q 2247 697 2547 995 
Q 2847 1294 2900 1881 
Q 2688 1725 2447 1647 
Q 2206 1569 1925 1569 
Q 1209 1569 770 1986 
Q 331 2403 331 3084 
Q 331 3838 820 4291 
Q 1309 4744 2131 4744 
Q 3044 4744 3544 4128 
Q 4044 3513 4044 2388 
Q 4044 1231 3459 570 
Q 2875 -91 1856 -91 
Q 1528 -91 1228 -42 
Q 928 6 641 103 
z
M 2125 2350 
Q 2441 2350 2600 2554 
Q 2759 2759 2759 3169 
Q 2759 3575 2600 3781 
Q 2441 3988 2125 3988 
Q 1809 3988 1650 3781 
Q 1491 3575 1491 3169 
Q 1491 2759 1650 2554 
Q 1809 2350 2125 2350 
z
" transform="scale(0.015625)"/>
      <path id="DejaVuSans-Bold-2e" d="M 653 1209 
L 1778 1209 
L 1778 0 
L 653 0 
L 653 1209 
z
" transform="scale(0.015625)"/>
      <path id="DejaVuSans-Bold-34" d="M 2356 3675 
L 1038 1722 
L 2356 1722 
L 2356 3675 
z
M 2156 4666 
L 3494 4666 
L 3494 1722 
L 4159 1722 
L 4159 850 
L 3494 850 
L 3494 0 
L 2356 0 
L 2356 850 
L 288 850 
L 288 1881 
L 2156 4666 
z
" transform="scale(0.015625)"/>
     </defs>
     <use xlink:href="#DejaVuSans-Bold-31"/>
     <use xlink:href="#DejaVuSans-Bold-39" x="69.580078"/>
     <use xlink:href="#DejaVuSans-Bold-2e" x="139.160156"/>
     <use xlink:href="#DejaVuSans-Bold-34" x="177.148438"/>
    </g>
   </g>
   <g id="text_16">
    <!-- 17.6 -->
    <g transform="translate(724.925205 404.560868) scale(0.1104 -0.1104)">
     <defs>
      <path id="DejaVuSans-Bold-37" d="M 428 4666 
L 3944 4666 
L 3944 3988 
L 2125 0 
L 953 0 
L 2675 3781 
L 428 3781 
L 428 4666 
z
" transform="scale(0.015625)"/>
      <path id="DejaVuSans-Bold-36" d="M 2316 2303 
Q 2000 2303 1842 2098 
Q 1684 1894 1684 1484 
Q 1684 1075 1842 870 
Q 2000 666 2316 666 
Q 2634 666 2792 870 
Q 2950 1075 2950 1484 
Q 2950 1894 2792 2098 
Q 2634 2303 2316 2303 
z
M 3803 4544 
L 3803 3681 
Q 3506 3822 3243 3889 
Q 2981 3956 2731 3956 
Q 2194 3956 1894 3657 
Q 1594 3359 1544 2772 
Q 1750 2925 1990 3001 
Q 2231 3078 2516 3078 
Q 3231 3078 3670 2659 
Q 4109 2241 4109 1563 
Q 4109 813 3618 361 
Q 3128 -91 2303 -91 
Q 1394 -91 895 523 
Q 397 1138 397 2266 
Q 397 3422 980 4083 
Q 1563 4744 2578 4744 
Q 2900 4744 3203 4694 
Q 3506 4644 3803 4544 
z
" transform="scale(0.015625)"/>
     </defs>
     <use xlink:href="#DejaVuSans-Bold-31"/>
     <use xlink:href="#DejaVuSans-Bold-37" x="69.580078"/>
     <use xlink:href="#DejaVuSans-Bold-2e" x="139.160156"/>
     <use xlink:href="#DejaVuSans-Bold-36" x="177.148438"/>
    </g>
   </g>
   <g id="text_17">
    <!-- 14.2 -->
    <g transform="translate(676.030142 436.545401) scale(0.1104 -0.1104)">
     <defs>
      <path id="DejaVuSans-Bold-32" d="M 1844 884 
L 3897 884 
L 3897 0 
L 506 0 
L 506 884 
L 2209 2388 
Q 2438 2594 2547 2791 
Q 2656 2988 2656 3200 
Q 2656 3528 2436 3728 
Q 2216 3928 1850 3928 
Q 1569 3928 1234 3808 
Q 900 3688 519 3450 
L 519 4475 
Q 925 4609 1322 4679 
Q 1719 4750 2100 4750 
Q 2938 4750 3402 4381 
Q 3866 4013 3866 3353 
Q 3866 2972 3669 2642 
Q 3472 2313 2841 1759 
L 1844 884 
z
" transform="scale(0.015625)"/>
     </defs>
     <use xlink:href="#DejaVuSans-Bold-31"/>
     <use xlink:href="#DejaVuSans-Bold-34" x="69.580078"/>
     <use xlink:href="#DejaVuSans-Bold-2e" x="139.160156"/>
     <use xlink:href="#DejaVuSans-Bold-32" x="177.148438"/>
    </g>
   </g>
   <g id="text_18">
    <!--  9.1 -->
    <g transform="translate(751.291799 469.43682) scale(0.1104 -0.1104)">
     <defs>
      <path id="DejaVuSans-Bold-20" transform="scale(0.015625)"/>
     </defs>
     <use xlink:href="#DejaVuSans-Bold-20"/>
     <use xlink:href="#DejaVuSans-Bold-39" x="34.814453"/>
     <use xlink:href="#DejaVuSans-Bold-2e" x="104.394531"/>
     <use xlink:href="#DejaVuSans-Bold-31" x="142.382812"/>
    </g>
   </g>
   <g id="text_19">
    <!-- 37.5 -->
    <g transform="translate(333.764702 321.899948) scale(0.1104 -0.1104)">
     <defs>
      <path id="DejaVuSans-Bold-33" d="M 2981 2516 
Q 3453 2394 3698 2092 
Q 3944 1791 3944 1325 
Q 3944 631 3412 270 
Q 2881 -91 1863 -91 
Q 1503 -91 1142 -33 
Q 781 25 428 141 
L 428 1069 
Q 766 900 1098 814 
Q 1431 728 1753 728 
Q 2231 728 2486 893 
Q 2741 1059 2741 1369 
Q 2741 1688 2480 1852 
Q 2219 2016 1709 2016 
L 1228 2016 
L 1228 2791 
L 1734 2791 
Q 2188 2791 2409 2933 
Q 2631 3075 2631 3366 
Q 2631 3634 2415 3781 
Q 2200 3928 1806 3928 
Q 1516 3928 1219 3862 
Q 922 3797 628 3669 
L 628 4550 
Q 984 4650 1334 4700 
Q 1684 4750 2022 4750 
Q 2931 4750 3382 4451 
Q 3834 4153 3834 3553 
Q 3834 3144 3618 2883 
Q 3403 2622 2981 2516 
z
" transform="scale(0.015625)"/>
      <path id="DejaVuSans-Bold-35" d="M 678 4666 
L 3669 4666 
L 3669 3781 
L 1638 3781 
L 1638 3059 
Q 1775 3097 1914 3117 
Q 2053 3138 2203 3138 
Q 3056 3138 3531 2711 
Q 4006 2284 4006 1522 
Q 4006 766 3489 337 
Q 2972 -91 2053 -91 
Q 1656 -91 1267 -14 
Q 878 63 494 219 
L 494 1166 
Q 875 947 1217 837 
Q 1559 728 1863 728 
Q 2300 728 2551 942 
Q 2803 1156 2803 1522 
Q 2803 1891 2551 2103 
Q 2300 2316 1863 2316 
Q 1603 2316 1309 2248 
Q 1016 2181 678 2041 
L 678 4666 
z
" transform="scale(0.015625)"/>
     </defs>
     <use xlink:href="#DejaVuSans-Bold-33"/>
     <use xlink:href="#DejaVuSans-Bold-37" x="69.580078"/>
     <use xlink:href="#DejaVuSans-Bold-2e" x="139.160156"/>
     <use xlink:href="#DejaVuSans-Bold-35" x="177.148438"/>
    </g>
   </g>
   <g id="text_20">
    <!-- 26.9 -->
    <g transform="translate(358.212234 364.239488) scale(0.1104 -0.1104)">
     <use xlink:href="#DejaVuSans-Bold-32"/>
     <use xlink:href="#DejaVuSans-Bold-36" x="69.580078"/>
     <use xlink:href="#DejaVuSans-Bold-2e" x="139.160156"/>
     <use xlink:href="#DejaVuSans-Bold-39" x="177.148438"/>
    </g>
   </g>
   <g id="text_21">
    <!-- 21.4 -->
    <g transform="translate(309.317171 402.692184) scale(0.1104 -0.1104)">
     <use xlink:href="#DejaVuSans-Bold-32"/>
     <use xlink:href="#DejaVuSans-Bold-31" x="69.580078"/>
     <use xlink:href="#DejaVuSans-Bold-2e" x="139.160156"/>
     <use xlink:href="#DejaVuSans-Bold-34" x="177.148438"/>
    </g>
   </g>
   <g id="text_22">
    <!--  0.5 -->
    <g transform="translate(384.578827 517.593797) scale(0.1104 -0.1104)">
     <defs>
      <path id="DejaVuSans-Bold-30" d="M 2944 2338 
Q 2944 3213 2780 3570 
Q 2616 3928 2228 3928 
Q 1841 3928 1675 3570 
Q 1509 3213 1509 2338 
Q 1509 1453 1675 1090 
Q 1841 728 2228 728 
Q 2613 728 2778 1090 
Q 2944 1453 2944 2338 
z
M 4147 2328 
Q 4147 1169 3647 539 
Q 3147 -91 2228 -91 
Q 1306 -91 806 539 
Q 306 1169 306 2328 
Q 306 3491 806 4120 
Q 1306 4750 2228 4750 
Q 3147 4750 3647 4120 
Q 4147 3491 4147 2328 
z
" transform="scale(0.015625)"/>
     </defs>
     <use xlink:href="#DejaVuSans-Bold-20"/>
     <use xlink:href="#DejaVuSans-Bold-30" x="34.814453"/>
     <use xlink:href="#DejaVuSans-Bold-2e" x="104.394531"/>
     <use xlink:href="#DejaVuSans-Bold-35" x="142.382812"/>
    </g>
   </g>
   <g id="text_23">
    <!-- 21.1 -->
    <g transform="translate(578.240016 404.221528) scale(0.1104 -0.1104)">
     <use xlink:href="#DejaVuSans-Bold-32"/>
     <use xlink:href="#DejaVuSans-Bold-31" x="69.580078"/>
     <use xlink:href="#DejaVuSans-Bold-2e" x="139.160156"/>
     <use xlink:href="#DejaVuSans-Bold-31" x="177.148438"/>
    </g>
   </g>
   <g id="text_24">
    <!-- 12.7 -->
    <g transform="translate(602.687548 434.364616) scale(0.1104 -0.1104)">
     <use xlink:href="#DejaVuSans-Bold-31"/>
     <use xlink:href="#DejaVuSans-Bold-32" x="69.580078"/>
     <use xlink:href="#DejaVuSans-Bold-2e" x="139.160156"/>
     <use xlink:href="#DejaVuSans-Bold-37" x="177.148438"/>
    </g>
   </g>
   <g id="text_25">
    <!-- 25.6 -->
    <g transform="translate(553.792485 363.764834) scale(0.1104 -0.1104)">
     <use xlink:href="#DejaVuSans-Bold-32"/>
     <use xlink:href="#DejaVuSans-Bold-35" x="69.580078"/>
     <use xlink:href="#DejaVuSans-Bold-2e" x="139.160156"/>
     <use xlink:href="#DejaVuSans-Bold-36" x="177.148438"/>
    </g>
   </g>
   <g id="text_26">
    <!--  0.3 -->
    <g transform="translate(629.054142 518.585408) scale(0.1104 -0.1104)">
     <use xlink:href="#DejaVuSans-Bold-20"/>
     <use xlink:href="#DejaVuSans-Bold-30" x="34.814453"/>
     <use xlink:href="#DejaVuSans-Bold-2e" x="104.394531"/>
     <use xlink:href="#DejaVuSans-Bold-33" x="142.382812"/>
    </g>
   </g>
   <g id="text_27">
    <!-- 25.1 -->
    <g transform="translate(822.715331 395.873522) scale(0.1104 -0.1104)">
     <use xlink:href="#DejaVuSans-Bold-32"/>
     <use xlink:href="#DejaVuSans-Bold-35" x="69.580078"/>
     <use xlink:href="#DejaVuSans-Bold-2e" x="139.160156"/>
     <use xlink:href="#DejaVuSans-Bold-31" x="177.148438"/>
    </g>
   </g>
   <g id="text_28">
    <!-- 18.1 -->
    <g transform="translate(847.162862 430.253726) scale(0.1104 -0.1104)">
     <defs>
      <path id="DejaVuSans-Bold-38" d="M 2228 2088 
Q 1891 2088 1709 1903 
Q 1528 1719 1528 1375 
Q 1528 1031 1709 848 
Q 1891 666 2228 666 
Q 2563 666 2741 848 
Q 2919 1031 2919 1375 
Q 2919 1722 2741 1905 
Q 2563 2088 2228 2088 
z
M 1350 2484 
Q 925 2613 709 2878 
Q 494 3144 494 3541 
Q 494 4131 934 4440 
Q 1375 4750 2228 4750 
Q 3075 4750 3515 4442 
Q 3956 4134 3956 3541 
Q 3956 3144 3739 2878 
Q 3522 2613 3097 2484 
Q 3572 2353 3814 2058 
Q 4056 1763 4056 1313 
Q 4056 619 3595 264 
Q 3134 -91 2228 -91 
Q 1319 -91 855 264 
Q 391 619 391 1313 
Q 391 1763 633 2058 
Q 875 2353 1350 2484 
z
M 1631 3419 
Q 1631 3141 1786 2991 
Q 1941 2841 2228 2841 
Q 2509 2841 2662 2991 
Q 2816 3141 2816 3419 
Q 2816 3697 2662 3845 
Q 2509 3994 2228 3994 
Q 1941 3994 1786 3844 
Q 1631 3694 1631 3419 
z
" transform="scale(0.015625)"/>
     </defs>
     <use xlink:href="#DejaVuSans-Bold-31"/>
     <use xlink:href="#DejaVuSans-Bold-38" x="69.580078"/>
     <use xlink:href="#DejaVuSans-Bold-2e" x="139.160156"/>
     <use xlink:href="#DejaVuSans-Bold-31" x="177.148438"/>
    </g>
   </g>
   <g id="text_29">
    <!-- 20.3 -->
    <g transform="translate(798.267799 419.319908) scale(0.1104 -0.1104)">
     <use xlink:href="#DejaVuSans-Bold-32"/>
     <use xlink:href="#DejaVuSans-Bold-30" x="69.580078"/>
     <use xlink:href="#DejaVuSans-Bold-2e" x="139.160156"/>
     <use xlink:href="#DejaVuSans-Bold-33" x="177.148438"/>
    </g>
   </g>
   <g id="text_30">
    <!--  3.2 -->
    <g transform="translate(873.529456 504.430158) scale(0.1104 -0.1104)">
     <use xlink:href="#DejaVuSans-Bold-20"/>
     <use xlink:href="#DejaVuSans-Bold-33" x="34.814453"/>
     <use xlink:href="#DejaVuSans-Bold-2e" x="104.394531"/>
     <use xlink:href="#DejaVuSans-Bold-32" x="142.382812"/>
    </g>
   </g>
   <g id="text_31">
    <!-- 14.7 -->
    <g transform="translate(211.527045 428.107133) scale(0.1104 -0.1104)">
     <use xlink:href="#DejaVuSans-Bold-31"/>
     <use xlink:href="#DejaVuSans-Bold-34" x="69.580078"/>
     <use xlink:href="#DejaVuSans-Bold-2e" x="139.160156"/>
     <use xlink:href="#DejaVuSans-Bold-37" x="177.148438"/>
    </g>
   </g>
   <g id="text_32">
    <!-- 17.7 -->
    <g transform="translate(235.974576 417.2309) scale(0.1104 -0.1104)">
     <use xlink:href="#DejaVuSans-Bold-31"/>
     <use xlink:href="#DejaVuSans-Bold-37" x="69.580078"/>
     <use xlink:href="#DejaVuSans-Bold-2e" x="139.160156"/>
     <use xlink:href="#DejaVuSans-Bold-37" x="177.148438"/>
    </g>
   </g>
   <g id="text_33">
    <!--  0.5 -->
    <g transform="translate(188.998576 514.228157) scale(0.1104 -0.1104)">
     <use xlink:href="#DejaVuSans-Bold-20"/>
     <use xlink:href="#DejaVuSans-Bold-30" x="34.814453"/>
     <use xlink:href="#DejaVuSans-Bold-2e" x="104.394531"/>
     <use xlink:href="#DejaVuSans-Bold-35" x="142.382812"/>
    </g>
   </g>
   <g id="text_34">
    <!--  0.0 -->
    <g transform="translate(262.34117 520.072825) scale(0.1104 -0.1104)">
     <use xlink:href="#DejaVuSans-Bold-20"/>
     <use xlink:href="#DejaVuSans-Bold-30" x="34.814453"/>
     <use xlink:href="#DejaVuSans-Bold-2e" x="104.394531"/>
     <use xlink:href="#DejaVuSans-Bold-30" x="142.382812"/>
    </g>
   </g>
   <g id="text_35">
    <!-- 22.2 -->
    <g transform="translate(456.002359 383.02227) scale(0.1104 -0.1104)">
     <use xlink:href="#DejaVuSans-Bold-32"/>
     <use xlink:href="#DejaVuSans-Bold-32" x="69.580078"/>
     <use xlink:href="#DejaVuSans-Bold-2e" x="139.160156"/>
     <use xlink:href="#DejaVuSans-Bold-32" x="177.148438"/>
    </g>
   </g>
   <g id="text_36">
    <!-- 17.1 -->
    <g transform="translate(480.449891 407.046118) scale(0.1104 -0.1104)">
     <use xlink:href="#DejaVuSans-Bold-31"/>
     <use xlink:href="#DejaVuSans-Bold-37" x="69.580078"/>
     <use xlink:href="#DejaVuSans-Bold-2e" x="139.160156"/>
     <use xlink:href="#DejaVuSans-Bold-31" x="177.148438"/>
    </g>
   </g>
   <g id="text_37">
    <!-- 20.3 -->
    <g transform="translate(431.554828 406.805546) scale(0.1104 -0.1104)">
     <use xlink:href="#DejaVuSans-Bold-32"/>
     <use xlink:href="#DejaVuSans-Bold-30" x="69.580078"/>
     <use xlink:href="#DejaVuSans-Bold-2e" x="139.160156"/>
     <use xlink:href="#DejaVuSans-Bold-33" x="177.148438"/>
    </g>
   </g>
   <g id="text_38">
    <!--  2.8 -->
    <g transform="translate(506.816485 505.856436) scale(0.1104 -0.1104)">
     <use xlink:href="#DejaVuSans-Bold-20"/>
     <use xlink:href="#DejaVuSans-Bold-32" x="34.814453"/>
     <use xlink:href="#DejaVuSans-Bold-2e" x="104.394531"/>
     <use xlink:href="#DejaVuSans-Bold-38" x="142.382812"/>
    </g>
   </g>
   <g id="text_39">
    <!-- 59.9 -->
    <g transform="translate(89.289388 208.79368) scale(0.1104 -0.1104)">
     <use xlink:href="#DejaVuSans-Bold-35"/>
     <use xlink:href="#DejaVuSans-Bold-39" x="69.580078"/>
     <use xlink:href="#DejaVuSans-Bold-2e" x="139.160156"/>
     <use xlink:href="#DejaVuSans-Bold-39" x="177.148438"/>
    </g>
   </g>
   <g id="text_40">
    <!-- 60.8 -->
    <g transform="translate(113.736919 185.651752) scale(0.1104 -0.1104)">
     <use xlink:href="#DejaVuSans-Bold-36"/>
     <use xlink:href="#DejaVuSans-Bold-30" x="69.580078"/>
     <use xlink:href="#DejaVuSans-Bold-2e" x="139.160156"/>
     <use xlink:href="#DejaVuSans-Bold-38" x="177.148438"/>
    </g>
   </g>
   <g id="text_41">
    <!-- 34.5 -->
    <g transform="translate(64.841856 313.705939) scale(0.1104 -0.1104)">
     <use xlink:href="#DejaVuSans-Bold-33"/>
     <use xlink:href="#DejaVuSans-Bold-34" x="69.580078"/>
     <use xlink:href="#DejaVuSans-Bold-2e" x="139.160156"/>
     <use xlink:href="#DejaVuSans-Bold-35" x="177.148438"/>
    </g>
   </g>
   <g id="text_42">
    <!-- 20.0 -->
    <g transform="translate(138.184451 420.911705) scale(0.1104 -0.1104)">
     <use xlink:href="#DejaVuSans-Bold-32"/>
     <use xlink:href="#DejaVuSans-Bold-30" x="69.580078"/>
     <use xlink:href="#DejaVuSans-Bold-2e" x="139.160156"/>
     <use xlink:href="#DejaVuSans-Bold-30" x="177.148438"/>
    </g>
   </g>
   <g id="text_43">
    <!-- Compositional generalization results on Deepcoder -->
    <g style="fill: #262626" transform="translate(340.575262 20.5632) scale(0.1104 -0.1104)">
     <defs>
      <path id="DejaVuSans-44" d="M 1259 4147 
L 1259 519 
L 2022 519 
Q 2988 519 3436 956 
Q 3884 1394 3884 2338 
Q 3884 3275 3436 3711 
Q 2988 4147 2022 4147 
L 1259 4147 
z
M 628 4666 
L 1925 4666 
Q 3281 4666 3915 4102 
Q 4550 3538 4550 2338 
Q 4550 1131 3912 565 
Q 3275 0 1925 0 
L 628 0 
L 628 4666 
z
" transform="scale(0.015625)"/>
     </defs>
     <use xlink:href="#DejaVuSans-43"/>
     <use xlink:href="#DejaVuSans-6f" x="69.824219"/>
     <use xlink:href="#DejaVuSans-6d" x="131.005859"/>
     <use xlink:href="#DejaVuSans-70" x="228.417969"/>
     <use xlink:href="#DejaVuSans-6f" x="291.894531"/>
     <use xlink:href="#DejaVuSans-73" x="353.076172"/>
     <use xlink:href="#DejaVuSans-69" x="405.175781"/>
     <use xlink:href="#DejaVuSans-74" x="432.958984"/>
     <use xlink:href="#DejaVuSans-69" x="472.167969"/>
     <use xlink:href="#DejaVuSans-6f" x="499.951172"/>
     <use xlink:href="#DejaVuSans-6e" x="561.132812"/>
     <use xlink:href="#DejaVuSans-61" x="624.511719"/>
     <use xlink:href="#DejaVuSans-6c" x="685.791016"/>
     <use xlink:href="#DejaVuSans-20" x="713.574219"/>
     <use xlink:href="#DejaVuSans-67" x="745.361328"/>
     <use xlink:href="#DejaVuSans-65" x="808.837891"/>
     <use xlink:href="#DejaVuSans-6e" x="870.361328"/>
     <use xlink:href="#DejaVuSans-65" x="933.740234"/>
     <use xlink:href="#DejaVuSans-72" x="995.263672"/>
     <use xlink:href="#DejaVuSans-61" x="1036.376953"/>
     <use xlink:href="#DejaVuSans-6c" x="1097.65625"/>
     <use xlink:href="#DejaVuSans-69" x="1125.439453"/>
     <use xlink:href="#DejaVuSans-7a" x="1153.222656"/>
     <use xlink:href="#DejaVuSans-61" x="1205.712891"/>
     <use xlink:href="#DejaVuSans-74" x="1266.992188"/>
     <use xlink:href="#DejaVuSans-69" x="1306.201172"/>
     <use xlink:href="#DejaVuSans-6f" x="1333.984375"/>
     <use xlink:href="#DejaVuSans-6e" x="1395.166016"/>
     <use xlink:href="#DejaVuSans-20" x="1458.544922"/>
     <use xlink:href="#DejaVuSans-72" x="1490.332031"/>
     <use xlink:href="#DejaVuSans-65" x="1529.195312"/>
     <use xlink:href="#DejaVuSans-73" x="1590.71875"/>
     <use xlink:href="#DejaVuSans-75" x="1642.818359"/>
     <use xlink:href="#DejaVuSans-6c" x="1706.197266"/>
     <use xlink:href="#DejaVuSans-74" x="1733.980469"/>
     <use xlink:href="#DejaVuSans-73" x="1773.189453"/>
     <use xlink:href="#DejaVuSans-20" x="1825.289062"/>
     <use xlink:href="#DejaVuSans-6f" x="1857.076172"/>
     <use xlink:href="#DejaVuSans-6e" x="1918.257812"/>
     <use xlink:href="#DejaVuSans-20" x="1981.636719"/>
     <use xlink:href="#DejaVuSans-44" x="2013.423828"/>
     <use xlink:href="#DejaVuSans-65" x="2090.425781"/>
     <use xlink:href="#DejaVuSans-65" x="2151.949219"/>
     <use xlink:href="#DejaVuSans-70" x="2213.472656"/>
     <use xlink:href="#DejaVuSans-63" x="2276.949219"/>
     <use xlink:href="#DejaVuSans-6f" x="2331.929688"/>
     <use xlink:href="#DejaVuSans-64" x="2393.111328"/>
     <use xlink:href="#DejaVuSans-65" x="2456.587891"/>
     <use xlink:href="#DejaVuSans-72" x="2518.111328"/>
    </g>
   </g>
   <g id="legend_1">
    <g id="patch_39">
     <path d="M 766.750775 94.07625 
L 902.5928 94.07625 
Q 904.6168 94.07625 904.6168 92.05225 
L 904.6168 33.6472 
Q 904.6168 31.6232 902.5928 31.6232 
L 766.750775 31.6232 
Q 764.726775 31.6232 764.726775 33.6472 
L 764.726775 92.05225 
Q 764.726775 94.07625 766.750775 94.07625 
z
" style="fill: #ffffff; opacity: 0.8; stroke: #cccccc; stroke-width: 0.8; stroke-linejoin: miter"/>
    </g>
    <g id="patch_40">
     <path d="M 768.774775 43.360819 
L 789.014775 43.360819 
L 789.014775 36.276819 
L 768.774775 36.276819 
z
" style="fill: #1b541f; stroke: #ffffff; stroke-width: 0.8; stroke-linejoin: miter"/>
    </g>
    <g id="text_44">
     <!-- REGISM -->
     <g style="fill: #262626" transform="translate(797.110775 43.360819) scale(0.1012 -0.1012)">
      <defs>
       <path id="DejaVuSans-52" d="M 2841 2188 
Q 3044 2119 3236 1894 
Q 3428 1669 3622 1275 
L 4263 0 
L 3584 0 
L 2988 1197 
Q 2756 1666 2539 1819 
Q 2322 1972 1947 1972 
L 1259 1972 
L 1259 0 
L 628 0 
L 628 4666 
L 2053 4666 
Q 2853 4666 3247 4331 
Q 3641 3997 3641 3322 
Q 3641 2881 3436 2590 
Q 3231 2300 2841 2188 
z
M 1259 4147 
L 1259 2491 
L 2053 2491 
Q 2509 2491 2742 2702 
Q 2975 2913 2975 3322 
Q 2975 3731 2742 3939 
Q 2509 4147 2053 4147 
L 1259 4147 
z
" transform="scale(0.015625)"/>
       <path id="DejaVuSans-49" d="M 628 4666 
L 1259 4666 
L 1259 0 
L 628 0 
L 628 4666 
z
" transform="scale(0.015625)"/>
       <path id="DejaVuSans-4d" d="M 628 4666 
L 1569 4666 
L 2759 1491 
L 3956 4666 
L 4897 4666 
L 4897 0 
L 4281 0 
L 4281 4097 
L 3078 897 
L 2444 897 
L 1241 4097 
L 1241 0 
L 628 0 
L 628 4666 
z
" transform="scale(0.015625)"/>
      </defs>
      <use xlink:href="#DejaVuSans-52"/>
      <use xlink:href="#DejaVuSans-45" x="69.482422"/>
      <use xlink:href="#DejaVuSans-47" x="132.666016"/>
      <use xlink:href="#DejaVuSans-49" x="210.15625"/>
      <use xlink:href="#DejaVuSans-53" x="239.648438"/>
      <use xlink:href="#DejaVuSans-4d" x="303.125"/>
     </g>
    </g>
    <g id="patch_41">
     <path d="M 768.774775 58.215081 
L 789.014775 58.215081 
L 789.014775 51.131081 
L 768.774775 51.131081 
z
" style="fill: #6f786e; stroke: #ffffff; stroke-width: 0.8; stroke-linejoin: miter"/>
    </g>
    <g id="text_45">
     <!-- ExeDec -->
     <g style="fill: #262626" transform="translate(797.110775 58.215081) scale(0.1012 -0.1012)">
      <defs>
       <path id="DejaVuSans-78" d="M 3513 3500 
L 2247 1797 
L 3578 0 
L 2900 0 
L 1881 1375 
L 863 0 
L 184 0 
L 1544 1831 
L 300 3500 
L 978 3500 
L 1906 2253 
L 2834 3500 
L 3513 3500 
z
" transform="scale(0.015625)"/>
      </defs>
      <use xlink:href="#DejaVuSans-45"/>
      <use xlink:href="#DejaVuSans-78" x="63.183594"/>
      <use xlink:href="#DejaVuSans-65" x="119.238281"/>
      <use xlink:href="#DejaVuSans-44" x="180.761719"/>
      <use xlink:href="#DejaVuSans-65" x="257.763672"/>
      <use xlink:href="#DejaVuSans-63" x="319.287109"/>
     </g>
    </g>
    <g id="patch_42">
     <path d="M 768.774775 73.069344 
L 789.014775 73.069344 
L 789.014775 65.985344 
L 768.774775 65.985344 
z
" style="fill: #115a7b; stroke: #ffffff; stroke-width: 0.8; stroke-linejoin: miter"/>
    </g>
    <g id="text_46">
     <!-- No-Subgoal Ablation -->
     <g style="fill: #262626" transform="translate(797.110775 73.069344) scale(0.1012 -0.1012)">
      <defs>
       <path id="DejaVuSans-4e" d="M 628 4666 
L 1478 4666 
L 3547 763 
L 3547 4666 
L 4159 4666 
L 4159 0 
L 3309 0 
L 1241 3903 
L 1241 0 
L 628 0 
L 628 4666 
z
" transform="scale(0.015625)"/>
      </defs>
      <use xlink:href="#DejaVuSans-4e"/>
      <use xlink:href="#DejaVuSans-6f" x="74.804688"/>
      <use xlink:href="#DejaVuSans-2d" x="137.861328"/>
      <use xlink:href="#DejaVuSans-53" x="173.945312"/>
      <use xlink:href="#DejaVuSans-75" x="237.421875"/>
      <use xlink:href="#DejaVuSans-62" x="300.800781"/>
      <use xlink:href="#DejaVuSans-67" x="364.277344"/>
      <use xlink:href="#DejaVuSans-6f" x="427.753906"/>
      <use xlink:href="#DejaVuSans-61" x="488.935547"/>
      <use xlink:href="#DejaVuSans-6c" x="550.214844"/>
      <use xlink:href="#DejaVuSans-20" x="577.998047"/>
      <use xlink:href="#DejaVuSans-41" x="609.785156"/>
      <use xlink:href="#DejaVuSans-62" x="678.193359"/>
      <use xlink:href="#DejaVuSans-6c" x="741.669922"/>
      <use xlink:href="#DejaVuSans-61" x="769.453125"/>
      <use xlink:href="#DejaVuSans-74" x="830.732422"/>
      <use xlink:href="#DejaVuSans-69" x="869.941406"/>
      <use xlink:href="#DejaVuSans-6f" x="897.724609"/>
      <use xlink:href="#DejaVuSans-6e" x="958.90625"/>
     </g>
    </g>
    <g id="patch_43">
     <path d="M 768.774775 87.923606 
L 789.014775 87.923606 
L 789.014775 80.839606 
L 768.774775 80.839606 
z
" style="fill: #1887aa; stroke: #ffffff; stroke-width: 0.8; stroke-linejoin: miter"/>
    </g>
    <g id="text_47">
     <!-- Synthesizer Model -->
     <g style="fill: #262626" transform="translate(797.110775 87.923606) scale(0.1012 -0.1012)">
      <use xlink:href="#DejaVuSans-53"/>
      <use xlink:href="#DejaVuSans-79" x="63.476562"/>
      <use xlink:href="#DejaVuSans-6e" x="122.65625"/>
      <use xlink:href="#DejaVuSans-74" x="186.035156"/>
      <use xlink:href="#DejaVuSans-68" x="225.244141"/>
      <use xlink:href="#DejaVuSans-65" x="288.623047"/>
      <use xlink:href="#DejaVuSans-73" x="350.146484"/>
      <use xlink:href="#DejaVuSans-69" x="402.246094"/>
      <use xlink:href="#DejaVuSans-7a" x="430.029297"/>
      <use xlink:href="#DejaVuSans-65" x="482.519531"/>
      <use xlink:href="#DejaVuSans-72" x="544.042969"/>
      <use xlink:href="#DejaVuSans-20" x="585.15625"/>
      <use xlink:href="#DejaVuSans-4d" x="616.943359"/>
      <use xlink:href="#DejaVuSans-6f" x="703.222656"/>
      <use xlink:href="#DejaVuSans-64" x="764.404297"/>
      <use xlink:href="#DejaVuSans-65" x="827.880859"/>
      <use xlink:href="#DejaVuSans-6c" x="889.404297"/>
     </g>
    </g>
   </g>
  </g>
 </g>
 <defs>
  <clipPath id="pf63ab544ab">
   <rect x="54.0132" y="26.5632" width="855.6636" height="495.8056"/>
  </clipPath>
 </defs>
</svg>
