<?xml version="1.0" encoding="UTF-8" standalone="no"?>
<!-- Created with Inkscape (http://www.inkscape.org/) -->

<svg
   version="1.1"
   id="svg2"
   width="533.34723"
   height="297.83066"
   viewBox="0 0 533.34723 297.83066"
   xmlns="http://www.w3.org/2000/svg"
   xmlns:svg="http://www.w3.org/2000/svg">
  <defs
     id="defs6">
    <clipPath
       clipPathUnits="userSpaceOnUse"
       id="clipPath18">
      <path
         d="m 16.99995,0 h 145.9623 V 178.6226 H 16.99995 Z"
         id="path16" />
    </clipPath>
    <clipPath
       clipPathUnits="userSpaceOnUse"
       id="clipPath32">
      <path
         d="M 202.7783,0 H 383.0104 V 178.6226 H 202.7783 Z"
         id="path30" />
    </clipPath>
    <clipPath
       clipPathUnits="userSpaceOnUse"
       id="clipPath46">
      <path
         d="M 153.0688,190.9707 238.5642,171.2436 210.902,51.35834 125.4066,71.08542 Z"
         id="path44" />
    </clipPath>
    <clipPath
       clipPathUnits="userSpaceOnUse"
       id="clipPath52">
      <path
         d="M 0,0 H 400.0104 V 223.373 H 0 Z"
         id="path50" />
    </clipPath>
    <clipPath
       clipPathUnits="userSpaceOnUse"
       id="clipPath66">
      <path
         d="M 158.9365,172.0429 225.3311,156.7231 203.5909,62.50297 137.1963,77.82276 Z"
         id="path64" />
    </clipPath>
    <clipPath
       clipPathUnits="userSpaceOnUse"
       id="clipPath72">
      <path
         d="M 0,0 H 400.0104 V 223.373 H 0 Z"
         id="path70" />
    </clipPath>
    <clipPath
       clipPathUnits="userSpaceOnUse"
       id="clipPath82">
      <path
         d="m 160.0233,134.076 47.268,-10.9066 -10.9066,-47.26793 -47.2679,10.90654 z"
         id="path80" />
    </clipPath>
    <clipPath
       clipPathUnits="userSpaceOnUse"
       id="clipPath88">
      <path
         d="M 0,0 H 400.0104 V 223.373 H 0 Z"
         id="path86" />
    </clipPath>
    <clipPath
       clipPathUnits="userSpaceOnUse"
       id="clipPath98">
      <path
         d="m 55.59377,30.49998 h 307.4166 V 58.99999 H 55.59377 Z"
         id="path96" />
    </clipPath>
  </defs>
  <g
     id="g8"
     transform="matrix(1.3333333,0,0,-1.3333333,0,297.83067)">
    <g
       id="g10" />
    <g
       id="g12">
      <g
         id="g14"
         clip-path="url(#clipPath18)">
        <g
           id="g20"
           transform="translate(54.36508,70.14272)">
          <text
             xml:space="preserve"
             transform="scale(1,-1)"
             style="font-variant:normal;font-size:96px;font-family:HiraMaruProN;-inkscape-font-specification:HiraMaruProN-W4;writing-mode:lr-tb;fill:#000000;fill-opacity:1;fill-rule:nonzero;stroke:none"
             id="text24"><tspan
               x="0"
               y="0"
               id="tspan22">C</tspan></text>
        </g>
      </g>
    </g>
    <g
       id="g26">
      <g
         id="g28"
         clip-path="url(#clipPath32)">
        <g
           id="g34"
           transform="translate(227.2784,70.14272)">
          <text
             xml:space="preserve"
             transform="scale(1,-1)"
             style="font-variant:normal;font-size:96px;font-family:HiraMaruProN;-inkscape-font-specification:HiraMaruProN-W4;writing-mode:lr-tb;fill:#000000;fill-opacity:1;fill-rule:nonzero;stroke:none"
             id="text38"><tspan
               x="0 69.120003"
               y="0"
               id="tspan36">RE</tspan></text>
        </g>
      </g>
    </g>
    <g
       id="g40">
      <g
         id="g42"
         clip-path="url(#clipPath46)">
        <g
           id="g48"
           clip-path="url(#clipPath52)">
          <path
             d="m 195.142,178.1839 c -17.676,4.0786 -19.0284,-9.3301 -29.8857,-23.4602 -10.8639,-14.1586 -22.6292,-22.3496 -27.0629,-41.5651 -5.0719,-21.98096 8.6259,-43.93507 30.6354,-49.01353 22.0095,-5.07845 43.9351,8.62595 49.0135,30.63545 4.4338,19.21558 -2.5531,31.73338 -6.1152,49.22058 -3.5685,17.4587 1.0911,30.1042 -16.5851,34.1828 z m -11.4072,-49.4376 c 10.6341,-2.4537 16.9094,-14.6804 14.002,-27.281 -2.9076,-12.60131 -13.905,-20.8418 -24.5396,-18.388 -10.6341,2.4537 -16.9094,14.68041 -14.002,27.281 2.9076,12.6013 13.905,20.8418 24.5396,18.388 z"
             style="fill:#00bc2d;fill-opacity:1;fill-rule:nonzero;stroke:none"
             id="path54" />
          <g
             id="g56"
             transform="matrix(0.9743977,-0.2248312,-0.2248312,-0.9743977,155.3175,187.373)">
            <path
               d="M 40.87088,0 C 22.73043,0 24.42744,13.36944 17.02497,29.57882 9.622487,45.81747 2.92588e-6,56.44392 0,76.16434 c 0,22.55852 18.28309,40.87086 40.87088,40.87086 22.5878,0 40.87086,-18.28306 40.87089,-40.87086 C 81.74178,56.44389 72.1193,45.81744 64.71681,29.57882 57.31433,13.36945 59.01151,0 40.87088,0 Z m 0,50.7366 c 10.91354,0 19.77713,10.50279 19.77713,23.43447 -10e-6,12.93239 -8.86306,23.43446 -19.77713,23.43448 -10.91353,0 -19.77712,-10.5028 -19.77711,-23.43448 0,-12.93239 8.86305,-23.43446 19.77711,-23.43447 z"
               style="fill:none;stroke:#000000;stroke-width:4;stroke-linecap:butt;stroke-linejoin:miter;stroke-miterlimit:4;stroke-dasharray:none;stroke-opacity:1"
               id="path58" />
          </g>
        </g>
      </g>
    </g>
    <g
       id="g60">
      <g
         id="g62"
         clip-path="url(#clipPath66)">
        <g
           id="g68"
           clip-path="url(#clipPath72)">
          <path
             d="m 191.909,163.4086 c -14.3021,3.3001 -15.3969,-7.5483 -24.1812,-18.9822 -8.7902,-11.456 -18.3098,-18.0835 -21.8972,-33.6312 -4.1038,-17.78528 6.9792,-35.54879 24.7878,-39.65794 17.8084,-4.10907 35.5488,6.97925 39.658,24.78784 3.5874,15.5477 -2.0671,25.6761 -4.948,39.8254 -2.8874,14.1263 0.8826,24.3581 -13.4194,27.6581 z m -9.2298,-40.001 c 8.6052,-1.9852 13.6817,-11.8787 11.3293,-22.0737 -2.3521,-10.19542 -11.2512,-16.86348 -19.8555,-14.87815 -8.6052,1.9852 -13.6817,11.87864 -11.3293,22.07365 2.3521,10.1954 11.2512,16.8635 19.8555,14.8782 z"
             style="fill:#c9f400;fill-opacity:1;fill-rule:nonzero;stroke:none"
             id="path74" />
        </g>
      </g>
    </g>
    <g
       id="g76">
      <g
         id="g78"
         clip-path="url(#clipPath82)">
        <g
           id="g84"
           clip-path="url(#clipPath88)">
          <path
             d="m 197.9239,117.3143 c 6.8072,-10.8908 3.4968,-25.23769 -7.3941,-32.04532 -10.891,-6.80722 -25.2386,-3.49703 -32.0457,7.39418 -6.8071,10.89074 -3.4968,25.23764 7.3941,32.04534 10.891,6.8072 25.2387,3.497 32.0457,-7.3942 z"
             style="fill:#522e00;fill-opacity:1;fill-rule:nonzero;stroke:none"
             id="path90" />
        </g>
      </g>
    </g>
    <g
       id="g92">
      <g
         id="g94"
         clip-path="url(#clipPath98)">
        <g
           id="g100"
           transform="translate(69.03606,42.68)">
          <text
             xml:space="preserve"
             transform="scale(1,-1)"
             style="font-variant:normal;font-size:14px;font-family:HiraMaruProN;-inkscape-font-specification:HiraMaruProN-W4;writing-mode:lr-tb;fill:#000000;fill-opacity:1;fill-rule:nonzero;stroke:none"
             id="text104"><tspan
               x="0 13.356 21.378 29.134001 37.548 40.824001 49.223999 57.259998 61.922001 70.741997 78.778 86.800003 92.848 101.248 104.524 112.924 121.576 126.238 137.032 141.694 152.082 163.35201 172.004 180.40401 183.67999 189.32201 192.59801 200.298 208.334 212.996 222.39 230.832 236.43201 242.07401 253.37199 261.39401 271.474"
               y="0"
               id="tspan102">Machine Learning &amp; COgnitive SoftwaRE</tspan></text>
        </g>
      </g>
    </g>
  </g>
</svg>
